<?xml version="1.0" encoding="utf-8"?>
<!-- Generator: Adobe Illustrator 27.9.0, SVG Export Plug-In . SVG Version: 6.00 Build 0)  -->
<svg version="1.1" id="Layer_1" xmlns="http://www.w3.org/2000/svg" xmlns:xlink="http://www.w3.org/1999/xlink" x="0px" y="0px"
	 viewBox="0 0 2653 1114" style="enable-background:new 0 0 2653 1114;" xml:space="preserve">
<style type="text/css">
	.st0{fill:#FFFFFF;}
	.st1{fill:none;stroke:#262626;stroke-linejoin:round;stroke-miterlimit:10;stroke-opacity:0.149;}
	.st2{fill:none;stroke:#262626;stroke-linecap:square;stroke-linejoin:round;stroke-miterlimit:10;}
	.st3{fill:#262626;}
	.st4{fill:none;stroke:#000000;stroke-width:4;stroke-linejoin:round;stroke-miterlimit:10;}
	.st5{fill:none;stroke:#000000;stroke-width:4;stroke-miterlimit:10;}
	.st6{fill:none;stroke:#000000;stroke-width:4;stroke-miterlimit:10;stroke-dasharray:12.0029,12.0029;}
</style>
<g>
	<g>
		<path class="st0" d="M344,958h2057V94H344V958z"/>
	</g>
	<g>
		<line class="st1" x1="345" y1="958" x2="345" y2="94"/>
		<line class="st1" x1="550.7" y1="958" x2="550.7" y2="94"/>
		<line class="st1" x1="756.4" y1="958" x2="756.4" y2="94"/>
		<line class="st1" x1="962.1" y1="958" x2="962.1" y2="94"/>
		<line class="st1" x1="1167.8" y1="958" x2="1167.8" y2="94"/>
		<line class="st1" x1="1373.5" y1="958" x2="1373.5" y2="94"/>
		<line class="st1" x1="1579.2" y1="958" x2="1579.2" y2="94"/>
		<line class="st1" x1="1784.9" y1="958" x2="1784.9" y2="94"/>
		<line class="st1" x1="1990.6" y1="958" x2="1990.6" y2="94"/>
		<line class="st1" x1="2196.3" y1="958" x2="2196.3" y2="94"/>
		<line class="st1" x1="2402" y1="958" x2="2402" y2="94"/>
		<line class="st1" x1="2402" y1="958" x2="345" y2="958"/>
		<line class="st1" x1="2402" y1="871.6" x2="345" y2="871.6"/>
		<line class="st1" x1="2402" y1="785.2" x2="345" y2="785.2"/>
		<line class="st1" x1="2402" y1="698.8" x2="345" y2="698.8"/>
		<line class="st1" x1="2402" y1="612.4" x2="345" y2="612.4"/>
		<line class="st1" x1="2402" y1="526" x2="345" y2="526"/>
		<line class="st1" x1="2402" y1="439.6" x2="345" y2="439.6"/>
		<line class="st1" x1="2402" y1="353.2" x2="345" y2="353.2"/>
		<line class="st1" x1="2402" y1="266.8" x2="345" y2="266.8"/>
		<line class="st1" x1="2402" y1="180.4" x2="345" y2="180.4"/>
		<line class="st1" x1="2402" y1="94" x2="345" y2="94"/>
		<line class="st2" x1="345" y1="958" x2="2402" y2="958"/>
		<line class="st2" x1="345" y1="94" x2="2402" y2="94"/>
		<line class="st2" x1="345" y1="958" x2="345" y2="937.4"/>
		<line class="st2" x1="550.7" y1="958" x2="550.7" y2="937.4"/>
		<line class="st2" x1="756.4" y1="958" x2="756.4" y2="937.4"/>
		<line class="st2" x1="962.1" y1="958" x2="962.1" y2="937.4"/>
		<line class="st2" x1="1167.8" y1="958" x2="1167.8" y2="937.4"/>
		<line class="st2" x1="1373.5" y1="958" x2="1373.5" y2="937.4"/>
		<line class="st2" x1="1579.2" y1="958" x2="1579.2" y2="937.4"/>
		<line class="st2" x1="1784.9" y1="958" x2="1784.9" y2="937.4"/>
		<line class="st2" x1="1990.6" y1="958" x2="1990.6" y2="937.4"/>
		<line class="st2" x1="2196.3" y1="958" x2="2196.3" y2="937.4"/>
		<line class="st2" x1="2402" y1="958" x2="2402" y2="937.4"/>
		<line class="st2" x1="345" y1="94" x2="345" y2="114.6"/>
		<line class="st2" x1="550.7" y1="94" x2="550.7" y2="114.6"/>
		<line class="st2" x1="756.4" y1="94" x2="756.4" y2="114.6"/>
		<line class="st2" x1="962.1" y1="94" x2="962.1" y2="114.6"/>
		<line class="st2" x1="1167.8" y1="94" x2="1167.8" y2="114.6"/>
		<line class="st2" x1="1373.5" y1="94" x2="1373.5" y2="114.6"/>
		<line class="st2" x1="1579.2" y1="94" x2="1579.2" y2="114.6"/>
		<line class="st2" x1="1784.9" y1="94" x2="1784.9" y2="114.6"/>
		<line class="st2" x1="1990.6" y1="94" x2="1990.6" y2="114.6"/>
		<line class="st2" x1="2196.3" y1="94" x2="2196.3" y2="114.6"/>
		<line class="st2" x1="2402" y1="94" x2="2402" y2="114.6"/>
	</g>
	<g transform="translate(345,971.6)">
		<path class="st3" d="M-11.5,32c0-4.1,0.4-7.3,1.2-9.8c0.8-2.5,2.1-4.4,3.7-5.7c1.7-1.3,3.7-2,6.2-2c1.8,0,3.5,0.4,4.9,1.1
			c1.4,0.7,2.5,1.8,3.4,3.2c0.9,1.4,1.6,3.1,2.1,5.1s0.8,4.7,0.8,8.1c0,4-0.4,7.3-1.2,9.8c-0.8,2.5-2.1,4.4-3.7,5.8
			c-1.7,1.4-3.7,2-6.2,2c-3.3,0-5.9-1.2-7.8-3.6C-10.4,43.2-11.5,38.5-11.5,32z M-7.2,32c0,5.6,0.7,9.4,2,11.3
			c1.3,1.9,3,2.8,4.9,2.8c1.9,0,3.6-0.9,4.9-2.8c1.3-1.9,2-5.6,2-11.2c0-5.7-0.7-9.4-2-11.3c-1.3-1.9-3-2.8-4.9-2.8
			c-1.9,0-3.5,0.8-4.6,2.5C-6.4,22.5-7.2,26.4-7.2,32z"/>
	</g>
	<g transform="translate(550.7,971.6)">
		<path class="st3" d="M4.4,49H0.2V22.1c-1,1-2.4,1.9-4,2.9c-1.6,1-3.1,1.7-4.4,2.2v-4.1c2.4-1.1,4.4-2.5,6.2-4
			c1.8-1.6,3-3.1,3.8-4.6h2.7V49z"/>
	</g>
	<g transform="translate(756.4,971.6)">
		<path class="st3" d="M10.7,44.9V49H-12c0-1,0.1-2,0.5-2.9c0.6-1.5,1.5-3.1,2.8-4.6c1.3-1.5,3.1-3.2,5.5-5.2
			C0.5,33.2,3,30.8,4.3,29c1.3-1.8,2-3.5,2-5.1c0-1.7-0.6-3.1-1.8-4.2C3.3,18.6,1.7,18-0.2,18c-2,0-3.7,0.6-4.9,1.8
			s-1.8,2.9-1.8,5.1l-4.3-0.4c0.3-3.2,1.4-5.7,3.4-7.4c1.9-1.7,4.5-2.5,7.8-2.5c3.3,0,5.9,0.9,7.8,2.7s2.9,4.1,2.9,6.8
			c0,1.4-0.3,2.7-0.8,4.1c-0.6,1.3-1.5,2.7-2.8,4.2c-1.3,1.5-3.5,3.5-6.5,6c-2.5,2.1-4.2,3.6-4.9,4.3c-0.7,0.8-1.3,1.5-1.8,2.3H10.7
			z"/>
	</g>
	<g transform="translate(962.1,971.6)">
		<path class="st3" d="M-11.5,39.9l4.2-0.6c0.5,2.4,1.3,4.1,2.5,5.2c1.2,1.1,2.6,1.6,4.3,1.6c2,0,3.7-0.7,5-2.1s2.1-3.1,2.1-5.1
			c0-1.9-0.6-3.5-1.9-4.8c-1.3-1.3-2.9-1.9-4.8-1.9c-0.8,0-1.8,0.2-3,0.5l0.5-3.7c0.3,0,0.5,0,0.7,0c1.8,0,3.4-0.5,4.9-1.4
			C4.3,26.7,5,25.3,5,23.3c0-1.5-0.5-2.8-1.6-3.8c-1-1-2.4-1.5-4.1-1.5c-1.6,0-3,0.5-4.1,1.5c-1.1,1-1.8,2.6-2.1,4.6l-4.2-0.8
			c0.5-2.8,1.7-5,3.5-6.6c1.8-1.6,4.1-2.3,6.8-2.3c1.9,0,3.6,0.4,5.2,1.2C6,16.5,7.2,17.6,8.1,19c0.8,1.4,1.2,2.9,1.2,4.4
			c0,1.5-0.4,2.8-1.2,4.1c-0.8,1.2-2,2.2-3.5,2.9c2,0.5,3.6,1.4,4.7,2.9c1.1,1.5,1.7,3.3,1.7,5.5c0,3-1.1,5.5-3.3,7.6
			c-2.2,2.1-5,3.1-8.3,3.1c-3,0-5.5-0.9-7.5-2.7S-11.2,42.8-11.5,39.9z"/>
	</g>
	<g transform="translate(1167.8,971.6)">
		<path class="st3" d="M2,49v-8.2h-14.9v-3.9L2.8,14.6h3.4v22.3h4.6v3.9H6.2V49H2z M2,36.9V21.4L-8.7,36.9H2z"/>
	</g>
	<g transform="translate(1373.5,971.6)">
		<path class="st3" d="M-11.5,40l4.4-0.4c0.3,2.2,1.1,3.8,2.3,4.9c1.2,1.1,2.6,1.6,4.3,1.6c2,0,3.8-0.8,5.2-2.3s2.1-3.6,2.1-6.1
			c0-2.4-0.7-4.3-2-5.7c-1.3-1.4-3.1-2.1-5.3-2.1c-1.4,0-2.6,0.3-3.7,0.9c-1.1,0.6-2,1.4-2.6,2.4l-4-0.5l3.3-17.6H9.7v4H-4l-1.9,9.2
			c2.1-1.4,4.2-2.2,6.5-2.2c3,0,5.5,1,7.6,3.1c2.1,2.1,3.1,4.7,3.1,8c0,3.1-0.9,5.8-2.7,8.1c-2.2,2.8-5.2,4.2-9,4.2
			c-3.1,0-5.7-0.9-7.6-2.6C-10.1,45.2-11.2,42.9-11.5,40z"/>
	</g>
	<g transform="translate(1579.2,971.6)">
		<path class="st3" d="M10.4,23l-4.2,0.3c-0.4-1.7-0.9-2.9-1.6-3.6C3.5,18.6,2.1,18,0.4,18c-1.3,0-2.5,0.4-3.5,1.1
			c-1.3,1-2.4,2.4-3.1,4.2c-0.8,1.9-1.2,4.5-1.2,7.9c1-1.6,2.3-2.7,3.7-3.5c1.5-0.8,3-1.1,4.6-1.1c2.8,0,5.2,1,7.2,3.1
			c2,2.1,3,4.8,3,8c0,2.2-0.5,4.2-1.4,6c-0.9,1.8-2.2,3.3-3.8,4.3c-1.6,1-3.5,1.5-5.5,1.5c-3.5,0-6.4-1.3-8.6-3.9
			c-2.2-2.6-3.3-6.9-3.3-12.8c0-6.6,1.2-11.5,3.7-14.5c2.1-2.6,5-3.9,8.7-3.9c2.7,0,4.9,0.8,6.6,2.3C9,18.3,10,20.4,10.4,23z
			 M-6.8,37.9c0,1.5,0.3,2.9,0.9,4.2c0.6,1.3,1.5,2.3,2.6,3s2.3,1,3.5,1c1.8,0,3.3-0.7,4.6-2.2c1.3-1.4,1.9-3.4,1.9-5.9
			c0-2.4-0.6-4.2-1.9-5.6c-1.3-1.4-2.9-2-4.8-2c-1.9,0-3.5,0.7-4.9,2C-6.2,33.8-6.8,35.6-6.8,37.9z"/>
	</g>
	<g transform="translate(1784.9,971.6)">
		<path class="st3" d="M-11.2,19.1v-4.1H11v3.3c-2.2,2.3-4.4,5.4-6.5,9.3c-2.1,3.9-3.8,7.8-5,11.9c-0.8,2.9-1.4,6-1.6,9.5h-4.3
			c0.1-2.7,0.6-6,1.6-9.8c1-3.8,2.5-7.5,4.4-11.1c1.9-3.6,3.9-6.5,6.1-9H-11.2z"/>
	</g>
	<g transform="translate(1990.6,971.6)">
		<path class="st3" d="M-5,30.4c-1.8-0.6-3-1.5-3.9-2.7c-0.8-1.2-1.3-2.6-1.3-4.3c0-2.5,0.9-4.6,2.7-6.3c1.8-1.7,4.2-2.6,7.2-2.6
			c3,0,5.4,0.9,7.2,2.6s2.7,3.9,2.7,6.4c0,1.6-0.4,3-1.3,4.2c-0.8,1.2-2.1,2.1-3.8,2.7c2.1,0.7,3.7,1.8,4.8,3.3
			c1.1,1.5,1.7,3.4,1.7,5.5c0,2.9-1,5.4-3.1,7.4c-2.1,2-4.8,3-8.2,3c-3.4,0-6.1-1-8.2-3c-2.1-2-3.1-4.5-3.1-7.5
			c0-2.2,0.6-4.1,1.7-5.6C-8.7,31.9-7.1,30.9-5,30.4z M-5.9,23.2c0,1.6,0.5,3,1.6,4c1,1,2.4,1.5,4.1,1.5c1.6,0,3-0.5,4-1.5
			c1-1,1.6-2.3,1.6-3.8c0-1.6-0.5-2.9-1.6-3.9S1.3,18-0.3,18c-1.6,0-3,0.5-4,1.5C-5.3,20.5-5.9,21.8-5.9,23.2z M-7.2,39.1
			c0,1.2,0.3,2.4,0.9,3.5s1.4,2,2.5,2.6s2.3,0.9,3.6,0.9c2,0,3.7-0.6,5-1.9s2-2.9,2-4.9c0-2-0.7-3.7-2-5s-3-2-5.1-2
			c-2,0-3.6,0.7-4.9,2C-6.6,35.5-7.2,37.1-7.2,39.1z"/>
	</g>
	<g transform="translate(2196.3,971.6)">
		<path class="st3" d="M-10.9,41l4.1-0.4c0.3,1.9,1,3.3,2,4.1c1,0.9,2.2,1.3,3.7,1.3c1.3,0,2.4-0.3,3.4-0.9c1-0.6,1.8-1.4,2.4-2.4
			c0.6-1,1.1-2.3,1.6-4c0.4-1.7,0.6-3.4,0.6-5.2c0-0.2,0-0.5,0-0.8c-0.8,1.3-2,2.4-3.5,3.3c-1.5,0.8-3,1.2-4.7,1.2
			c-2.8,0-5.3-1-7.2-3.1s-3-4.8-3-8.2c0-3.5,1-6.3,3.1-8.4s4.6-3.2,7.7-3.2c2.2,0,4.3,0.6,6.1,1.8c1.8,1.2,3.3,2.9,4.2,5.1
			c1,2.2,1.4,5.4,1.4,9.7c0,4.4-0.5,7.9-1.4,10.5c-1,2.6-2.4,4.6-4.3,5.9c-1.9,1.4-4.1,2-6.6,2c-2.7,0-4.9-0.7-6.6-2.2
			S-10.5,43.8-10.9,41z M6.4,25.9c0-2.4-0.6-4.4-1.9-5.8C3.2,18.7,1.6,18-0.2,18c-1.9,0-3.5,0.8-4.9,2.3c-1.4,1.5-2.1,3.5-2.1,6
			c0,2.2,0.7,4,2,5.3s3,2.1,4.9,2.1c1.9,0,3.6-0.7,4.8-2.1S6.4,28.3,6.4,25.9z"/>
	</g>
	<g transform="translate(2402,971.6)">
		<path class="st3" d="M-9.1,49h-4.2V22.1c-1,1-2.4,1.9-4,2.9c-1.6,1-3.1,1.7-4.4,2.2v-4.1c2.4-1.1,4.4-2.5,6.2-4
			c1.8-1.6,3-3.1,3.8-4.6h2.7V49z M1.7,32c0-4.1,0.4-7.3,1.3-9.8c0.8-2.5,2.1-4.4,3.7-5.7c1.7-1.3,3.7-2,6.2-2
			c1.8,0,3.5,0.4,4.9,1.1c1.4,0.7,2.5,1.8,3.4,3.2c0.9,1.4,1.6,3.1,2.1,5.1c0.5,2,0.8,4.7,0.8,8.1c0,4-0.4,7.3-1.2,9.8
			c-0.8,2.5-2.1,4.4-3.7,5.8c-1.7,1.4-3.7,2-6.2,2c-3.3,0-5.9-1.2-7.8-3.6C2.8,43.2,1.7,38.5,1.7,32z M6,32c0,5.6,0.7,9.4,2,11.3
			c1.3,1.9,3,2.8,4.9,2.8c1.9,0,3.6-0.9,4.9-2.8c1.3-1.9,2-5.6,2-11.2c0-5.7-0.7-9.4-2-11.3c-1.3-1.9-3-2.8-4.9-2.8
			c-1.9,0-3.5,0.8-4.6,2.5C6.8,22.5,6,26.4,6,32z"/>
	</g>
	<g transform="translate(1349,1082)">
		<path class="st3" d="M2.4-0.8c0-0.5,0.2-0.9,0.6-1.3l13.5-13.2l-4.8-13.4c-0.4-1-0.8-1.8-1.2-2.4c-0.4-0.6-1-0.9-1.8-0.9
			c-0.4,0-0.5-0.2-0.5-0.6c0-0.2,0.1-0.3,0.2-0.4c0.1-0.1,0.3-0.2,0.5-0.2c3.4,0,5.4,1,6.1,3l9.8,27.2c0.4,1.4,0.8,2.3,1.3,2.8
			c0.2,0.2,0.2,0.4,0.2,0.5c0,0.3-0.1,0.5-0.4,0.5h-2.6c-0.8-0.2-1.4-0.9-1.9-2.1l-4.4-12.3L5.5-0.2C5,0.4,4.4,0.6,4,0.6
			c-0.4,0-0.8-0.1-1.1-0.4C2.6-0.1,2.4-0.4,2.4-0.8z"/>
	</g>
	<g transform="translate(1377,1106)">
		<path class="st3" d="M2.5,0v-19.7h3v2.8c1.4-2.2,3.5-3.2,6.3-3.2c1.2,0,2.3,0.2,3.3,0.6s1.7,1,2.2,1.7c0.5,0.7,0.8,1.5,1,2.5
			c0.1,0.6,0.2,1.7,0.2,3.2V0h-3.3v-12c0-1.4-0.1-2.4-0.4-3.1c-0.3-0.7-0.7-1.2-1.4-1.6c-0.7-0.4-1.4-0.6-2.3-0.6
			c-1.4,0-2.7,0.5-3.7,1.4c-1,0.9-1.5,2.6-1.5,5.1V0H2.5z"/>
	</g>
	<g>
		<line class="st2" x1="345" y1="958" x2="345" y2="94"/>
		<line class="st2" x1="2402" y1="958" x2="2402" y2="94"/>
		<line class="st2" x1="345" y1="958" x2="365.6" y2="958"/>
		<line class="st2" x1="345" y1="871.6" x2="365.6" y2="871.6"/>
		<line class="st2" x1="345" y1="785.2" x2="365.6" y2="785.2"/>
		<line class="st2" x1="345" y1="698.8" x2="365.6" y2="698.8"/>
		<line class="st2" x1="345" y1="612.4" x2="365.6" y2="612.4"/>
		<line class="st2" x1="345" y1="526" x2="365.6" y2="526"/>
		<line class="st2" x1="345" y1="439.6" x2="365.6" y2="439.6"/>
		<line class="st2" x1="345" y1="353.2" x2="365.6" y2="353.2"/>
		<line class="st2" x1="345" y1="266.8" x2="365.6" y2="266.8"/>
		<line class="st2" x1="345" y1="180.4" x2="365.6" y2="180.4"/>
		<line class="st2" x1="345" y1="94" x2="365.6" y2="94"/>
		<line class="st2" x1="2402" y1="958" x2="2381.4" y2="958"/>
		<line class="st2" x1="2402" y1="871.6" x2="2381.4" y2="871.6"/>
		<line class="st2" x1="2402" y1="785.2" x2="2381.4" y2="785.2"/>
		<line class="st2" x1="2402" y1="698.8" x2="2381.4" y2="698.8"/>
		<line class="st2" x1="2402" y1="612.4" x2="2381.4" y2="612.4"/>
		<line class="st2" x1="2402" y1="526" x2="2381.4" y2="526"/>
		<line class="st2" x1="2402" y1="439.6" x2="2381.4" y2="439.6"/>
		<line class="st2" x1="2402" y1="353.2" x2="2381.4" y2="353.2"/>
		<line class="st2" x1="2402" y1="266.8" x2="2381.4" y2="266.8"/>
		<line class="st2" x1="2402" y1="180.4" x2="2381.4" y2="180.4"/>
		<line class="st2" x1="2402" y1="94" x2="2381.4" y2="94"/>
	</g>
	<g transform="translate(331.4,958)">
		<path class="st3" d="M-68.5,8.7V4.4h13v4.2H-68.5z M-36.1,19h-4.2V-7.9c-1,1-2.4,1.9-4,2.9c-1.6,1-3.1,1.7-4.4,2.2v-4.1
			c2.4-1.1,4.4-2.5,6.2-4c1.8-1.6,3-3.1,3.8-4.6h2.7V19z M-25.3,2c0-4.1,0.4-7.3,1.2-9.8c0.8-2.5,2.1-4.4,3.7-5.7
			c1.7-1.3,3.7-2,6.2-2c1.8,0,3.5,0.4,4.9,1.1c1.4,0.7,2.5,1.8,3.4,3.2c0.9,1.4,1.6,3.1,2.1,5.1S-2.9-1.4-2.9,2c0,4-0.4,7.3-1.2,9.8
			c-0.8,2.5-2.1,4.4-3.7,5.8s-3.7,2-6.2,2c-3.3,0-5.9-1.2-7.8-3.6C-24.2,13.2-25.3,8.5-25.3,2z M-21,2c0,5.6,0.7,9.4,2,11.3
			c1.3,1.9,3,2.8,4.9,2.8c1.9,0,3.6-0.9,4.9-2.8c1.3-1.9,2-5.6,2-11.2c0-5.7-0.7-9.4-2-11.3c-1.3-1.9-3-2.8-4.9-2.8
			c-1.9,0-3.5,0.8-4.6,2.5C-20.3-7.5-21-3.6-21,2z"/>
	</g>
	<g transform="translate(331.4,871.6)">
		<path class="st3" d="M-41.5,8.7V4.4h13v4.3H-41.5z M-18.5,0.4c-1.8-0.6-3-1.5-3.9-2.7c-0.8-1.2-1.3-2.6-1.3-4.3
			c0-2.5,0.9-4.6,2.7-6.3s4.2-2.6,7.2-2.6c3,0,5.4,0.9,7.2,2.6S-3.8-9-3.8-6.5c0,1.6-0.4,3-1.3,4.2c-0.8,1.2-2.1,2.1-3.8,2.7
			C-6.8,1-5.2,2.2-4.1,3.7C-3,5.2-2.4,7-2.4,9.2c0,2.9-1,5.4-3.1,7.4c-2.1,2-4.8,3-8.2,3c-3.4,0-6.1-1-8.2-3c-2.1-2-3.1-4.5-3.1-7.5
			c0-2.2,0.6-4.1,1.7-5.6C-22.2,1.9-20.6,0.9-18.5,0.4z M-19.4-6.8c0,1.6,0.5,3,1.6,4s2.4,1.5,4.1,1.5c1.6,0,3-0.5,4-1.5
			c1-1,1.6-2.3,1.6-3.8c0-1.6-0.5-2.9-1.6-3.9c-1.1-1.1-2.4-1.6-4-1.6c-1.6,0-3,0.5-4,1.5C-18.8-9.5-19.4-8.2-19.4-6.8z M-20.7,9.1
			c0,1.2,0.3,2.4,0.9,3.5c0.6,1.1,1.4,2,2.5,2.6s2.3,0.9,3.6,0.9c2,0,3.7-0.6,5-1.9c1.3-1.3,2-2.9,2-4.9c0-2-0.7-3.7-2-5
			c-1.4-1.3-3-2-5.1-2c-2,0-3.6,0.7-4.9,2C-20.1,5.5-20.7,7.1-20.7,9.1z"/>
	</g>
	<g transform="translate(331.4,785.2)">
		<path class="st3" d="M-41.5,8.7V4.4h13v4.2H-41.5z M-3.1-7l-4.2,0.3c-0.4-1.7-0.9-2.9-1.6-3.6c-1.1-1.2-2.5-1.8-4.2-1.8
			c-1.3,0-2.5,0.4-3.5,1.1c-1.3,1-2.4,2.4-3.1,4.2C-20.6-4.8-21-2.2-21,1.3c1-1.6,2.3-2.7,3.7-3.5c1.5-0.8,3-1.1,4.6-1.1
			c2.8,0,5.2,1,7.2,3.1c2,2.1,3,4.8,3,8c0,2.2-0.5,4.2-1.4,6c-0.9,1.8-2.2,3.3-3.8,4.3c-1.6,1-3.5,1.5-5.5,1.5
			c-3.5,0-6.4-1.3-8.6-3.9c-2.2-2.6-3.3-6.9-3.3-12.8c0-6.6,1.2-11.5,3.7-14.5c2.1-2.6,5-3.9,8.7-3.9c2.7,0,4.9,0.8,6.6,2.3
			C-4.5-11.7-3.5-9.6-3.1-7z M-20.4,7.9c0,1.5,0.3,2.9,0.9,4.2c0.6,1.3,1.5,2.3,2.6,3c1.1,0.7,2.3,1,3.5,1c1.8,0,3.3-0.7,4.6-2.2
			c1.3-1.4,1.9-3.4,1.9-5.9c0-2.4-0.6-4.2-1.9-5.6c-1.3-1.4-2.9-2-4.8-2c-1.9,0-3.5,0.7-4.9,2C-19.7,3.8-20.4,5.6-20.4,7.9z"/>
	</g>
	<g transform="translate(331.4,698.8)">
		<path class="st3" d="M-41.5,8.7V4.4h13v4.2H-41.5z M-11.5,19v-8.2h-14.9V6.9l15.7-22.3h3.4V6.9h4.6v3.9h-4.6V19H-11.5z M-11.5,6.9
			V-8.6L-22.2,6.9H-11.5z"/>
	</g>
	<g transform="translate(331.4,612.4)">
		<path class="st3" d="M-41.5,8.7V4.4h13v4.2H-41.5z M-2.8,14.9V19h-22.7c0-1,0.1-2,0.5-2.9c0.6-1.5,1.5-3.1,2.8-4.6
			c1.3-1.5,3.1-3.2,5.5-5.2C-13,3.2-10.5,0.8-9.2-1c1.3-1.8,2-3.5,2-5.1c0-1.7-0.6-3.1-1.8-4.2c-1.2-1.2-2.8-1.7-4.7-1.7
			c-2,0-3.7,0.6-4.9,1.8c-1.2,1.2-1.8,2.9-1.8,5.1l-4.3-0.4c0.3-3.2,1.4-5.7,3.4-7.4c1.9-1.7,4.5-2.5,7.8-2.5c3.3,0,5.9,0.9,7.8,2.7
			S-2.9-8.7-2.9-6c0,1.4-0.3,2.7-0.8,4.1c-0.6,1.3-1.5,2.7-2.8,4.2c-1.3,1.5-3.5,3.5-6.5,6c-2.5,2.1-4.2,3.6-4.9,4.3
			c-0.7,0.8-1.3,1.5-1.8,2.3H-2.8z"/>
	</g>
	<g transform="translate(331.4,526)">
		<path class="st3" d="M-25,2c0-4.1,0.4-7.3,1.2-9.8c0.8-2.5,2.1-4.4,3.7-5.7c1.7-1.3,3.7-2,6.2-2c1.8,0,3.5,0.4,4.9,1.1
			c1.4,0.7,2.5,1.8,3.4,3.2c0.9,1.4,1.6,3.1,2.1,5.1S-2.6-1.4-2.6,2c0,4-0.4,7.3-1.2,9.8c-0.8,2.5-2.1,4.4-3.7,5.8
			c-1.7,1.4-3.7,2-6.2,2c-3.3,0-5.9-1.2-7.8-3.6C-23.9,13.2-25,8.5-25,2z M-20.7,2c0,5.6,0.7,9.4,2,11.3s3,2.8,4.9,2.8
			c1.9,0,3.6-0.9,4.9-2.8c1.3-1.9,2-5.6,2-11.2c0-5.7-0.7-9.4-2-11.3c-1.3-1.9-3-2.8-4.9-2.8c-1.9,0-3.5,0.8-4.6,2.5
			C-19.9-7.5-20.7-3.6-20.7,2z"/>
	</g>
	<g transform="translate(331.4,439.6)">
		<path class="st3" d="M-2.8,14.9V19h-22.7c0-1,0.1-2,0.5-2.9c0.6-1.5,1.5-3.1,2.8-4.6c1.3-1.5,3.1-3.2,5.5-5.2
			C-13,3.2-10.5,0.8-9.2-1s2-3.5,2-5.1c0-1.7-0.6-3.1-1.8-4.2c-1.2-1.2-2.8-1.7-4.7-1.7c-2,0-3.7,0.6-4.9,1.8s-1.8,2.9-1.8,5.1
			l-4.3-0.4c0.3-3.2,1.4-5.7,3.4-7.4c1.9-1.7,4.5-2.5,7.8-2.5c3.3,0,5.9,0.9,7.8,2.7S-2.9-8.7-2.9-6c0,1.4-0.3,2.7-0.8,4.1
			c-0.6,1.3-1.5,2.7-2.8,4.2c-1.3,1.5-3.5,3.5-6.5,6c-2.5,2.1-4.2,3.6-4.9,4.3c-0.7,0.8-1.3,1.5-1.8,2.3H-2.8z"/>
	</g>
	<g transform="translate(331.4,353.2)">
		<path class="st3" d="M-11.5,19v-8.2h-14.9V6.9l15.7-22.3h3.4V6.9h4.6v3.9h-4.6V19H-11.5z M-11.5,6.9V-8.6L-22.2,6.9H-11.5z"/>
	</g>
	<g transform="translate(331.4,266.8)">
		<path class="st3" d="M-3.1-7l-4.2,0.3c-0.4-1.7-0.9-2.9-1.6-3.6c-1.1-1.2-2.5-1.8-4.2-1.8c-1.3,0-2.5,0.4-3.5,1.1
			c-1.3,1-2.4,2.4-3.1,4.2C-20.6-4.8-21-2.2-21,1.3c1-1.6,2.3-2.7,3.7-3.5c1.5-0.8,3-1.1,4.6-1.1c2.8,0,5.2,1,7.2,3.1
			c2,2.1,3,4.8,3,8c0,2.2-0.5,4.2-1.4,6c-0.9,1.8-2.2,3.3-3.8,4.3c-1.6,1-3.5,1.5-5.5,1.5c-3.5,0-6.4-1.3-8.6-3.9
			c-2.2-2.6-3.3-6.9-3.3-12.8c0-6.6,1.2-11.5,3.7-14.5c2.1-2.6,5-3.9,8.7-3.9c2.7,0,4.9,0.8,6.6,2.3C-4.5-11.7-3.5-9.6-3.1-7z
			 M-20.3,7.9c0,1.5,0.3,2.9,0.9,4.2c0.6,1.3,1.5,2.3,2.6,3c1.1,0.7,2.3,1,3.5,1c1.8,0,3.3-0.7,4.6-2.2c1.3-1.4,1.9-3.4,1.9-5.9
			c0-2.4-0.6-4.2-1.9-5.6c-1.3-1.4-2.9-2-4.8-2c-1.9,0-3.5,0.7-4.9,2C-19.7,3.8-20.3,5.6-20.3,7.9z"/>
	</g>
	<g transform="translate(331.4,180.4)">
		<path class="st3" d="M-18.5,0.4c-1.8-0.6-3-1.5-3.9-2.7c-0.8-1.2-1.3-2.6-1.3-4.3c0-2.5,0.9-4.6,2.7-6.3c1.8-1.7,4.2-2.6,7.2-2.6
			c3,0,5.4,0.9,7.2,2.6S-3.8-9-3.8-6.5c0,1.6-0.4,3-1.3,4.2s-2.1,2.1-3.8,2.7C-6.8,1-5.2,2.2-4.1,3.7S-2.4,7-2.4,9.2
			c0,2.9-1,5.4-3.1,7.4c-2.1,2-4.8,3-8.2,3c-3.4,0-6.1-1-8.2-3c-2.1-2-3.1-4.5-3.1-7.5c0-2.2,0.6-4.1,1.7-5.6
			C-22.2,1.9-20.6,0.9-18.5,0.4z M-19.4-6.8c0,1.6,0.5,3,1.6,4c1,1,2.4,1.5,4.1,1.5c1.6,0,3-0.5,4-1.5c1-1,1.6-2.3,1.6-3.8
			c0-1.6-0.5-2.9-1.6-3.9s-2.4-1.6-4-1.6c-1.6,0-3,0.5-4,1.5C-18.8-9.5-19.4-8.2-19.4-6.8z M-20.7,9.1c0,1.2,0.3,2.4,0.9,3.5
			c0.6,1.1,1.4,2,2.5,2.6s2.3,0.9,3.6,0.9c2,0,3.7-0.6,5-1.9s2-2.9,2-4.9c0-2-0.7-3.7-2-5s-3-2-5.1-2c-2,0-3.6,0.7-4.9,2
			C-20.1,5.5-20.7,7.1-20.7,9.1z"/>
	</g>
	<g transform="translate(331.4,94)">
		<path class="st3" d="M-36.1,19h-4.2V-7.9c-1,1-2.4,1.9-4,2.9c-1.6,1-3.1,1.7-4.4,2.2v-4.1c2.4-1.1,4.4-2.5,6.2-4
			c1.8-1.6,3-3.1,3.8-4.6h2.7V19z M-25.3,2c0-4.1,0.4-7.3,1.2-9.8c0.8-2.5,2.1-4.4,3.7-5.7c1.7-1.3,3.7-2,6.2-2
			c1.8,0,3.5,0.4,4.9,1.1c1.4,0.7,2.5,1.8,3.4,3.2c0.9,1.4,1.6,3.1,2.1,5.1c0.5,2,0.8,4.7,0.8,8.1c0,4-0.4,7.3-1.2,9.8
			s-2.1,4.4-3.7,5.8c-1.7,1.4-3.7,2-6.2,2c-3.3,0-5.9-1.2-7.8-3.6C-24.2,13.2-25.3,8.5-25.3,2z M-21,2c0,5.6,0.7,9.4,2,11.3
			c1.3,1.9,3,2.8,4.9,2.8c1.9,0,3.6-0.9,4.9-2.8c1.3-1.9,2-5.6,2-11.2c0-5.7-0.7-9.4-2-11.3c-1.3-1.9-3-2.8-4.9-2.8
			c-1.9,0-3.5,0.8-4.6,2.5C-20.2-7.5-21-3.6-21,2z"/>
	</g>
	<g transform="translate(255.4,525.9996) rotate(-90)">
		<path class="st3" d="M-161-11v-34.4h12.9c2.6,0,4.7,0.3,6.3,1c1.6,0.7,2.8,1.8,3.7,3.2c0.9,1.4,1.3,3,1.3,4.5
			c0,1.5-0.4,2.9-1.2,4.1c-0.8,1.3-2,2.3-3.6,3.1c2.1,0.6,3.7,1.6,4.8,3.1c1.1,1.5,1.7,3.2,1.7,5.2c0,1.6-0.3,3.1-1,4.5
			c-0.7,1.4-1.5,2.4-2.5,3.2s-2.3,1.3-3.8,1.7c-1.5,0.4-3.4,0.6-5.5,0.6H-161z M-156.4-30.9h7.4c2,0,3.5-0.1,4.3-0.4
			c1.2-0.3,2-0.9,2.6-1.7s0.9-1.8,0.9-3c0-1.1-0.3-2.2-0.8-3c-0.5-0.9-1.3-1.5-2.3-1.8c-1-0.3-2.8-0.5-5.2-0.5h-6.9V-30.9z
			 M-156.4-15.1h8.6c1.5,0,2.5-0.1,3.1-0.2c1-0.2,1.9-0.5,2.6-0.9c0.7-0.4,1.3-1.1,1.7-1.9c0.5-0.8,0.7-1.8,0.7-2.9
			c0-1.3-0.3-2.4-1-3.3s-1.6-1.6-2.7-2c-1.2-0.4-2.8-0.6-5-0.6h-8V-15.1z M-129.3-40.5v-4.8h4.2v4.8H-129.3z M-129.3-11v-24.9h4.2
			V-11H-129.3z M-120.2-23.5c0-4.6,1.3-8,3.8-10.2c2.1-1.8,4.8-2.8,7.8-2.8c3.4,0,6.2,1.1,8.4,3.4c2.2,2.2,3.3,5.3,3.3,9.3
			c0,3.2-0.5,5.7-1.4,7.6c-1,1.8-2.4,3.3-4.2,4.3c-1.8,1-3.8,1.5-6,1.5c-3.5,0-6.3-1.1-8.4-3.4C-119.2-16-120.2-19.2-120.2-23.5z
			 M-115.9-23.5c0,3.2,0.7,5.6,2.1,7.2c1.4,1.6,3.1,2.4,5.2,2.4c2.1,0,3.8-0.8,5.2-2.4c1.4-1.6,2.1-4,2.1-7.3c0-3.1-0.7-5.4-2.1-7
			c-1.4-1.6-3.1-2.4-5.2-2.4c-2.1,0-3.9,0.8-5.2,2.4C-115.2-29-115.9-26.6-115.9-23.5z M-82.8-14.8l0.6,3.7
			c-1.2,0.2-2.3,0.4-3.2,0.4c-1.5,0-2.7-0.2-3.6-0.7c-0.8-0.5-1.4-1.1-1.8-1.9c-0.3-0.8-0.5-2.5-0.5-5v-14.3h-3.1v-3.3h3.1v-6.2
			l4.2-2.5v8.7h4.2v3.3H-87v14.5c0,1.2,0.1,2,0.2,2.3c0.1,0.3,0.4,0.6,0.7,0.8c0.3,0.2,0.8,0.3,1.4,0.3
			C-84.1-14.6-83.5-14.7-82.8-14.8z M-65.3-11v-24.9h3.8v3.5c1.8-2.7,4.5-4.1,7.9-4.1c1.5,0,2.9,0.3,4.1,0.8
			c1.3,0.5,2.2,1.2,2.8,2.1c0.6,0.9,1.1,1.9,1.3,3.1c0.2,0.8,0.2,2.1,0.2,4.1V-11h-4.2v-15.1c0-1.7-0.2-3-0.5-3.9s-0.9-1.5-1.7-2
			c-0.8-0.5-1.8-0.8-2.9-0.8c-1.8,0-3.4,0.6-4.7,1.7c-1.3,1.1-2,3.3-2,6.5V-11H-65.3z M-22.3-11v-3.7c-1.9,2.8-4.6,4.2-7.9,4.2
			c-1.5,0-2.8-0.3-4.1-0.8c-1.3-0.6-2.2-1.3-2.8-2.1c-0.6-0.9-1.1-1.9-1.3-3.1c-0.2-0.8-0.2-2.1-0.2-3.9v-15.4h4.2v13.8
			c0,2.2,0.1,3.7,0.2,4.5c0.3,1.1,0.8,2,1.7,2.6c0.9,0.6,1.9,0.9,3.2,0.9c1.3,0,2.5-0.3,3.6-1c1.1-0.6,1.9-1.5,2.4-2.6
			c0.5-1.1,0.7-2.7,0.7-4.9v-13.3h4.2V-11H-22.3z M-11.9-11v-24.9h3.8v3.5c0.8-1.2,1.8-2.2,3.1-2.9c1.3-0.7,2.8-1.1,4.4-1.1
			c1.8,0,3.4,0.4,4.5,1.1c1.2,0.8,2,1.8,2.5,3.2c2-2.9,4.5-4.4,7.7-4.4c2.5,0,4.4,0.7,5.7,2c1.3,1.4,2,3.5,2,6.3V-11h-4.2v-15.7
			c0-1.7-0.1-2.9-0.4-3.6c-0.3-0.7-0.8-1.3-1.5-1.8c-0.7-0.5-1.6-0.7-2.5-0.7c-1.8,0-3.2,0.6-4.4,1.7c-1.2,1.2-1.7,3-1.7,5.6V-11
			H2.9v-16.2c0-1.9-0.3-3.3-1-4.2c-0.7-0.9-1.8-1.4-3.4-1.4c-1.2,0-2.3,0.3-3.3,0.9c-1,0.6-1.7,1.5-2.2,2.7
			c-0.5,1.2-0.7,2.9-0.7,5.2V-11H-11.9z M32-11h-3.9v-34.4h4.2v12.2c1.8-2.2,4.1-3.3,6.8-3.3c1.5,0,3,0.3,4.3,0.9
			c1.4,0.6,2.5,1.5,3.4,2.6c0.9,1.1,1.6,2.5,2.1,4s0.8,3.3,0.8,5.1c0,4.3-1.1,7.6-3.2,9.9c-2.1,2.3-4.6,3.5-7.6,3.5
			c-2.9,0-5.2-1.2-6.9-3.7V-11z M31.9-23.6c0,3,0.4,5.1,1.2,6.5c1.3,2.2,3.1,3.3,5.4,3.3c1.8,0,3.4-0.8,4.8-2.4c1.3-1.6,2-4,2-7.2
			c0-3.3-0.6-5.6-1.9-7.2c-1.3-1.5-2.8-2.3-4.7-2.3c-1.8,0-3.4,0.8-4.8,2.4C32.6-29,31.9-26.7,31.9-23.6z M71.8-19l4.4,0.5
			c-0.7,2.6-2,4.5-3.8,5.9c-1.9,1.4-4.2,2.1-7.1,2.1c-3.6,0-6.5-1.1-8.7-3.4c-2.1-2.2-3.2-5.4-3.2-9.4c0-4.2,1.1-7.4,3.2-9.8
			c2.2-2.3,5-3.5,8.4-3.5c3.3,0,6,1.1,8.1,3.4c2.1,2.3,3.2,5.5,3.2,9.6c0,0.2,0,0.6,0,1.1H57.7c0.2,2.7,0.9,4.8,2.3,6.3
			c1.4,1.5,3.1,2.2,5.2,2.2c1.6,0,2.9-0.4,4-1.2C70.3-15.9,71.2-17.2,71.8-19z M58-25.8h13.9c-0.2-2.1-0.7-3.7-1.6-4.7
			c-1.3-1.6-3.1-2.4-5.2-2.4c-1.9,0-3.6,0.6-4.9,1.9C58.8-29.7,58.1-28,58-25.8z M81.4-11v-24.9h3.8v3.8c1-1.8,1.9-2.9,2.7-3.5
			c0.8-0.6,1.7-0.8,2.7-0.8c1.4,0,2.9,0.5,4.3,1.4l-1.5,3.9c-1-0.6-2.1-0.9-3.1-0.9c-0.9,0-1.7,0.3-2.5,0.8
			c-0.7,0.6-1.3,1.3-1.6,2.3c-0.5,1.5-0.7,3.1-0.7,4.9v13H81.4z M98.6-11v-4.8h4.8v4.8c0,1.8-0.3,3.2-0.9,4.3s-1.6,1.9-3,2.5L98.3-6
			c0.9-0.4,1.6-1,2-1.7c0.4-0.8,0.7-1.8,0.7-3.3H98.6z M124.5-11v-34.4h12.9c2.6,0,4.7,0.3,6.3,1s2.8,1.8,3.7,3.2
			c0.9,1.4,1.3,3,1.3,4.5c0,1.5-0.4,2.9-1.2,4.1c-0.8,1.3-2,2.3-3.6,3.1c2.1,0.6,3.7,1.6,4.8,3.1c1.1,1.5,1.7,3.2,1.7,5.2
			c0,1.6-0.3,3.1-1,4.5c-0.7,1.4-1.5,2.4-2.5,3.2s-2.3,1.3-3.8,1.7c-1.5,0.4-3.4,0.6-5.5,0.6H124.5z M129-30.9h7.4
			c2,0,3.5-0.1,4.3-0.4c1.2-0.3,2-0.9,2.6-1.7c0.6-0.8,0.9-1.8,0.9-3c0-1.1-0.3-2.2-0.8-3c-0.5-0.9-1.3-1.5-2.3-1.8
			c-1-0.3-2.8-0.5-5.2-0.5H129V-30.9z M129-15.1h8.6c1.5,0,2.5-0.1,3.1-0.2c1-0.2,1.9-0.5,2.6-0.9c0.7-0.4,1.3-1.1,1.7-1.9
			c0.5-0.8,0.7-1.8,0.7-2.9c0-1.3-0.3-2.4-1-3.3s-1.6-1.6-2.7-2c-1.2-0.4-2.8-0.6-5-0.6h-8V-15.1z M156.2-40.5v-4.8h4.2v4.8H156.2z
			 M156.2-11v-24.9h4.2V-11H156.2z"/>
	</g>
	<g transform="translate(1326,55)">
		<path d="M-123.2,0.3c0-0.5,0.2-0.9,0.6-1.3l13.5-13.2l-4.8-13.4c-0.4-1-0.8-1.8-1.2-2.4c-0.4-0.6-1-0.9-1.8-0.9
			c-0.4,0-0.5-0.2-0.5-0.6c0-0.2,0.1-0.3,0.2-0.4c0.1-0.1,0.3-0.2,0.5-0.2c4,0,6.4,1,7.1,3L-99.8-2c0.4,1.4,0.8,2.3,1.3,2.8
			c0.2,0.2,0.2,0.4,0.2,0.5c0,0.3-0.5,0.5-1.4,0.5h-2.6c-0.8-0.2-1.4-0.9-1.9-2.1l-4.1-11.4l-10.9,12.8c-0.6,0.6-1.4,0.8-2.5,0.8
			c-0.4,0-0.8-0.1-1.1-0.4C-123.1,1-123.2,0.7-123.2,0.3z"/>
	</g>
	<g transform="translate(1357,79)">
		<path d="M-106,1.1h-5.2V-9c0-2.1-0.1-3.5-0.3-4.1c-0.2-0.6-0.6-1.1-1.1-1.5c-0.5-0.3-1.1-0.5-1.8-0.5c-0.9,0-1.7,0.2-2.4,0.7
			c-0.7,0.5-1.2,1.1-1.5,2c-0.3,0.8-0.4,2.3-0.4,4.5v8.9h-5.2v-19.7h4.8v2.9c1.7-2.2,3.9-3.3,6.5-3.3c1.1,0,2.2,0.2,3.1,0.6
			s1.7,0.9,2.2,1.6c0.5,0.6,0.8,1.4,1,2.2c0.2,0.8,0.3,2,0.3,3.5V1.1z"/>
	</g>
	<g transform="translate(1381,55)">
		<path d="M-111.8-23.8v5.2h-4.5v10c0,2,0,3.2,0.1,3.5s0.3,0.6,0.6,0.8c0.3,0.2,0.7,0.3,1.1,0.3c0.6,0,1.5-0.2,2.7-0.6l0.6,5.1
			c-1.5,0.7-3.3,1-5.2,1c-1.2,0-2.3-0.2-3.2-0.6c-1-0.4-1.7-0.9-2.1-1.5c-0.4-0.6-0.8-1.5-0.9-2.6c-0.1-0.8-0.2-2.3-0.2-4.6v-10.8
			h-3v-5.2h3v-5l6.6-3.8v8.8H-111.8z M-102.3-16.2l-6-1.1c0.7-2.4,1.8-4.2,3.5-5.3c1.6-1.2,4.1-1.7,7.3-1.7c2.9,0,5.1,0.3,6.6,1
			c1.4,0.7,2.5,1.6,3,2.6s0.9,3,0.9,5.9l-0.1,7.7c0,2.2,0.1,3.8,0.3,4.8c0.2,1,0.6,2.2,1.2,3.3h-6.5c-0.2-0.4-0.4-1.1-0.6-2
			c-0.1-0.4-0.2-0.6-0.2-0.8c-1.1,1.1-2.3,1.9-3.6,2.5s-2.7,0.8-4.1,0.8c-2.6,0-4.6-0.7-6.1-2.1c-1.5-1.4-2.2-3.1-2.2-5.3
			c0-1.4,0.3-2.7,1-3.8c0.7-1.1,1.6-1.9,2.8-2.5c1.2-0.6,3-1.1,5.2-1.5c3.1-0.6,5.2-1.1,6.4-1.6v-0.7c0-1.3-0.3-2.2-0.9-2.7
			c-0.6-0.5-1.8-0.8-3.5-0.8c-1.2,0-2.1,0.2-2.7,0.7C-101.3-18.2-101.9-17.4-102.3-16.2z M-93.5-10.9c-0.8,0.3-2.2,0.6-4,1
			c-1.8,0.4-3,0.8-3.6,1.1c-0.9,0.6-1.3,1.4-1.3,2.3c0,0.9,0.3,1.7,1,2.4c0.7,0.7,1.6,1,2.6,1c1.2,0,2.3-0.4,3.4-1.2
			c0.8-0.6,1.3-1.3,1.6-2.2c0.2-0.6,0.3-1.6,0.3-3.2V-10.9z M-57.9,1.1h-6.6v-12.7c0-2.7-0.1-4.4-0.4-5.2c-0.3-0.8-0.7-1.4-1.4-1.8
			c-0.6-0.4-1.4-0.7-2.3-0.7c-1.1,0-2.2,0.3-3.1,0.9c-0.9,0.6-1.5,1.5-1.9,2.5S-74-13-74-10.2V1.1h-6.6v-24.9h6.1v3.7
			c2.2-2.8,4.9-4.2,8.2-4.2c1.5,0,2.8,0.3,4,0.8c1.2,0.5,2.1,1.2,2.7,2c0.6,0.8,1,1.7,1.3,2.8c0.2,1,0.4,2.5,0.4,4.4V1.1z"/>
	</g>
	<g transform="translate(1453,55)">
		<path d="M-123.2,0.3c0-0.5,0.2-0.9,0.6-1.3l13.5-13.2l-4.8-13.4c-0.4-1-0.8-1.8-1.2-2.4c-0.4-0.6-1-0.9-1.8-0.9
			c-0.4,0-0.5-0.2-0.5-0.6c0-0.2,0.1-0.3,0.2-0.4c0.1-0.1,0.3-0.2,0.5-0.2c4,0,6.4,1,7.1,3L-99.8-2c0.4,1.4,0.8,2.3,1.3,2.8
			c0.2,0.2,0.2,0.4,0.2,0.5c0,0.3-0.5,0.5-1.4,0.5h-2.6c-0.8-0.2-1.4-0.9-1.9-2.1l-4.1-11.4l-10.9,12.8c-0.6,0.6-1.4,0.8-2.5,0.8
			c-0.4,0-0.8-0.1-1.1-0.4C-123.1,1-123.2,0.7-123.2,0.3z"/>
	</g>
	<g transform="translate(1484,79)">
		<path d="M-106,1.1h-5.2V-9c0-2.1-0.1-3.5-0.3-4.1c-0.2-0.6-0.6-1.1-1.1-1.5c-0.5-0.3-1.1-0.5-1.8-0.5c-0.9,0-1.7,0.2-2.4,0.7
			c-0.7,0.5-1.2,1.1-1.5,2c-0.3,0.8-0.4,2.3-0.4,4.5v8.9h-5.2v-19.7h4.8v2.9c1.7-2.2,3.9-3.3,6.5-3.3c1.1,0,2.2,0.2,3.1,0.6
			s1.7,0.9,2.2,1.6c0.5,0.6,0.8,1.4,1,2.2c0.2,0.8,0.3,2,0.3,3.5V1.1z"/>
	</g>
	<g transform="translate(1508,55)">
		<path d="M-116.6-18v-6h24v6H-116.6z M-116.6-7.6v-6.1h24v6.1H-116.6z M-75.1-33.3h13.7c2.7,0,4.7,0.1,6.1,0.3
			c1.3,0.2,2.5,0.7,3.6,1.4c1.1,0.7,1.9,1.7,2.6,2.9c0.7,1.2,1.1,2.5,1.1,4c0,1.6-0.4,3.1-1.3,4.4c-0.9,1.3-2,2.3-3.5,3
			c2.1,0.6,3.7,1.7,4.8,3.1c1.1,1.5,1.7,3.2,1.7,5.2c0,1.6-0.4,3.1-1.1,4.6c-0.7,1.5-1.7,2.7-3,3.5c-1.3,0.9-2.8,1.4-4.7,1.6
			C-56.2,1-59,1.1-63.4,1.1h-11.7V-33.3z M-68.2-27.5v7.9h4.5c2.7,0,4.4,0,5-0.1c1.2-0.1,2.1-0.6,2.8-1.2c0.7-0.7,1-1.6,1-2.7
			c0-1.1-0.3-1.9-0.9-2.6c-0.6-0.7-1.5-1.1-2.6-1.2c-0.7-0.1-2.7-0.1-5.9-0.1H-68.2z M-68.2-13.9v9.2h6.4c2.5,0,4.1-0.1,4.8-0.2
			c1-0.2,1.9-0.6,2.5-1.4s1-1.7,1-2.9c0-1-0.2-1.9-0.8-2.6c-0.5-0.7-1.2-1.2-2.2-1.6c-0.9-0.3-3-0.5-6.1-0.5H-68.2z M-40.5-27.2
			v-6.1h6.6v6.1H-40.5z M-40.5,1.1v-24.9h6.6V1.1H-40.5z"/>
	</g>
	<g>
		<path class="st4" d="M347.1,526l2.1,0l2.1,0l2.1,0l2.1,0l2.1,0l2.1-0.1l2.1-0.1l2.1-0.1l2.1-0.1l2.1-0.1l2.1-0.1l2.1-0.1l2.1-0.1
			l2.1-0.1l2.1-0.1l2.1-0.1l2.1-0.2l2.1-0.2l2.1-0.2l2.1-0.2l2.1-0.2l2.1-0.2l2.1-0.2l2.1-0.2l2.1-0.2l2.1-0.2l2.1-0.3l2.1-0.3
			l2.1-0.3l2.1-0.3l2.1-0.3l2.1-0.3l2.1-0.3l2.1-0.3l2.1-0.3l2.1-0.3l2.1-0.4l2.1-0.4l2.1-0.4l2.1-0.4l2.1-0.4l2.1-0.4l2.1-0.4
			l2.1-0.4l2.1-0.5l2.1-0.5l2.1-0.5l2.1-0.5l2.1-0.5l2.1-0.5l2.1-0.5l2.1-0.6l2.1-0.6l2.1-0.6l2.1-0.6l2.1-0.6l2.1-0.6l2.1-0.6
			l2.1-0.7l2.1-0.7l2.1-0.7l2.1-0.7l2.1-0.7l2.1-0.8l2.1-0.8l2.1-0.8l2.1-0.8l2.1-0.8l2.1-0.9l2.1-0.9l2.1-0.9l2.1-0.9l2.1-1l2.1-1
			l2.1-1l2.1-1l2.1-1.1l2.1-1.1l2.1-1.1l2.1-1.2l2.1-1.2l2.1-1.2l2.1-1.3l2.1-1.3l2.1-1.4l2.1-1.4l2.1-1.4l2.1-1.5l2.1-1.5l2.1-1.6
			l2.1-1.6l2.1-1.7l2.1-1.7l2.1-1.8l2.1-1.8l2.1-1.9l2.1-2l2.1-2l2.1-2.1l2.1-2.2l2.1-2.3l2.1-2.4l2.1-2.4l2.1-2.5l2.1-2.6l2.1-2.7
			l2.1-2.9l2.1-3l2.1-3.1l2.1-3.2l2.1-3.4l2.1-3.5l2.1-3.7l2.1-3.9l2.1-4l2.1-4.2l2.1-4.4l2.1-4.7l2.1-4.9l2.1-5.2l2.1-5.5l2.1-5.8
			l2.1-6.2l2.1-6.5l2.1-6.9l2.1-7.4l2.1-7.9l2.1-8.5l2.1-9.1l2.1-9.8l2.1-10.5l2.1-11.4l2.1-12.4l2.1-13.5l2.1-14.7l2.1-16.2
			l2.1-17.9l2.1-19.8l2.1-22.2l2.1-24.9l2.1-28.2l1.8-28.4"/>
		<g>
			<g>
				<line class="st5" x1="669.8" y1="93.9" x2="669.8" y2="99.9"/>
				<line class="st6" x1="669.8" y1="111.9" x2="669.9" y2="946.1"/>
				<line class="st5" x1="669.9" y1="952.1" x2="669.9" y2="958.1"/>
			</g>
		</g>
		<path class="st4" d="M703.6,958.1l1.3-14.8L707,923l2.1-18.3l2.1-16.6l2.1-15.1l2.1-13.8l2.1-12.7l2.1-11.7l2.1-10.8l2.1-10
			l2.1-9.3l2.1-8.7l2.1-8.2l2.1-7.7l2.1-7.2l2.1-6.8l2.1-6.4l2.1-6.1l2.1-5.7l2.1-5.5l2.1-5.2l2.1-4.9l2.1-4.7l2.1-4.5l2.1-4.3
			l2.1-4.1l2.1-4l2.1-3.8l2.1-3.7l2.1-3.5l2.1-3.4l2.1-3.3l2.1-3.2l2.1-3.1l2.1-3l2.1-2.9l2.1-2.8l2.1-2.7l2.1-2.6l2.1-2.5l2.1-2.5
			l2.1-2.4l2.1-2.3l2.1-2.3l2.1-2.2l2.1-2.2l2.1-2.1l2.1-2.1l2.1-2l2.1-2l2.1-1.9l2.1-1.9l2.1-1.9l2.1-1.8l2.1-1.8l2.1-1.8l2.1-1.7
			l2.1-1.7l2.1-1.7l2.1-1.7l2.1-1.6l2.1-1.6l2.1-1.6l2.1-1.6l2.1-1.5l2.1-1.5l2.1-1.5l2.1-1.5l2.1-1.5l2.1-1.4l2.1-1.4l2.1-1.4
			l2.1-1.4l2.1-1.4l2.1-1.4l2.1-1.4l2.1-1.4l2.1-1.3l2.1-1.3l2.1-1.3l2.1-1.3l2.1-1.3l2.1-1.3l2.1-1.3l2.1-1.3l2.1-1.3l2.1-1.3
			l2.1-1.3l2.1-1.3l2.1-1.2l2.1-1.2l2.1-1.2l2.1-1.2l2.1-1.2l2.1-1.2l2.1-1.2l2.1-1.2l2.1-1.2l2.1-1.2l2.1-1.2l2.1-1.2l2.1-1.2
			l2.1-1.2l2.1-1.2l2.1-1.2l2.1-1.2l2.1-1.2l2.1-1.2l2.1-1.2l2.1-1.2l2.1-1.2l2.1-1.2l2.1-1.2l2.1-1.2l2.1-1.2l2.1-1.2l2.1-1.2
			l2.1-1.2l2.1-1.2l2.1-1.2l2.1-1.2l2.1-1.2l2.1-1.2l2.1-1.2l2.1-1.3l2.1-1.3l2.1-1.3l2.1-1.3l2.1-1.3l2.1-1.3l2.1-1.3l2.1-1.3
			l2.1-1.3l2.1-1.3l2.1-1.3l2.1-1.3l2.1-1.3l2.1-1.3l2.1-1.3l2.1-1.4l2.1-1.4l2.1-1.4l2.1-1.4l2.1-1.4l2.1-1.4l2.1-1.4l2.1-1.4
			l2.1-1.4l2.1-1.4l2.1-1.5l2.1-1.5l2.1-1.5l2.1-1.5l2.1-1.5l2.1-1.5l2.1-1.5l2.1-1.5l2.1-1.6l2.1-1.6l2.1-1.6l2.1-1.6l2.1-1.6
			l2.1-1.6l2.1-1.6l2.1-1.7l2.1-1.7l2.1-1.7l2.1-1.7l2.1-1.7l2.1-1.7l2.1-1.8l2.1-1.8l2.1-1.8l2.1-1.8l2.1-1.9l2.1-1.9l2.1-1.9
			l2.1-1.9l2.1-1.9l2.1-2l2.1-2l2.1-2l2.1-2l2.1-2.1l2.1-2.1l2.1-2.1l2.1-2.2l2.1-2.2l2.1-2.2l2.1-2.3l2.1-2.3l2.1-2.3l2.1-2.4
			l2.1-2.4l2.1-2.4l2.1-2.5l2.1-2.5l2.1-2.6l2.1-2.6l2.1-2.6l2.1-2.7l2.1-2.7l2.1-2.8l2.1-2.8l2.1-2.9l2.1-2.9l2.1-3l2.1-3l2.1-3.1
			l2.1-3.2l2.1-3.2l2.1-3.3l2.1-3.4l2.1-3.4l2.1-3.5l2.1-3.6l2.1-3.6l2.1-3.7l2.1-3.8l2.1-3.9l2.1-4l2.1-4.1l2.1-4.2l2.1-4.3
			l2.1-4.4l2.1-4.5l2.1-4.6l2.1-4.7l2.1-4.8l2.1-5l2.1-5.1l2.1-5.3l2.1-5.4l2.1-5.6l2.1-5.7l2.1-5.9l2.1-6.1l2.1-6.3l2.1-6.5
			l2.1-6.7l2.1-6.9l2.1-7.1l2.1-7.4l2.1-7.6l2.1-7.9l2.1-8.2l2.1-8.5l2.1-8.8l2.1-9.1l2.1-9.5l2.1-9.9l2.1-10.3l2.1-10.7l2.1-11.2
			l2.1-11.7l2.1-12.3l1.2-7.5"/>
		<g>
			<g>
				<line class="st5" x1="1315.4" y1="93.9" x2="1315.4" y2="99.9"/>
				<line class="st6" x1="1315.4" y1="111.9" x2="1315.4" y2="946.1"/>
				<line class="st5" x1="1315.4" y1="952.1" x2="1315.4" y2="958.1"/>
			</g>
		</g>
		<path class="st4" d="M1412.8,958.1l1.8-8.5l2.1-9.2l2.1-8.9l2.1-8.6l2.1-8.3l2.1-8.1l2.1-7.8l2.1-7.6l2.1-7.3l2.1-7.1l2.1-6.9
			l2.1-6.7l2.1-6.5l2.1-6.3l2.1-6.2l2.1-6l2.1-5.9l2.1-5.7l2.1-5.6l2.1-5.5l2.1-5.3l2.1-5.2l2.1-5.1l2.1-5l2.1-4.9l2.1-4.8l2.1-4.7
			l2.1-4.6l2.1-4.5l2.1-4.4l2.1-4.3l2.1-4.3l2.1-4.2l2.1-4.1l2.1-4.1l2.1-4l2.1-3.9l2.1-3.9l2.1-3.8l2.1-3.7l2.1-3.7l2.1-3.6
			l2.1-3.6l2.1-3.5l2.1-3.5l2.1-3.5l2.1-3.4l2.1-3.4l2.1-3.3l2.1-3.3l2.1-3.3l2.1-3.2l2.1-3.2l2.1-3.2l2.1-3.1l2.1-3.1l2.1-3.1
			l2.1-3.1l2.1-3l2.1-3l2.1-3l2.1-3l2.1-2.9l2.1-2.9l2.1-2.9l2.1-2.9l2.1-2.9l2.1-2.8l2.1-2.8l2.1-2.8l2.1-2.8l2.1-2.8l2.1-2.8
			l2.1-2.8l2.1-2.7l2.1-2.7l2.1-2.7l2.1-2.7l2.1-2.7l2.1-2.7l2.1-2.7l2.1-2.7l2.1-2.7l2.1-2.7l2.1-2.7l2.1-2.7l2.1-2.7l2.1-2.7
			l2.1-2.7l2.1-2.6l2.1-2.6l2.1-2.6l2.1-2.6l2.1-2.6l2.1-2.6l2.1-2.6l2.1-2.6l2.1-2.6l2.1-2.7l2.1-2.7l2.1-2.7l2.1-2.7l2.1-2.7
			l2.1-2.7l2.1-2.7l2.1-2.7l2.1-2.7l2.1-2.7l2.1-2.7l2.1-2.7l2.1-2.7l2.1-2.7l2.1-2.7l2.1-2.8l2.1-2.8l2.1-2.8l2.1-2.8l2.1-2.8
			l2.1-2.8l2.1-2.8l2.1-2.8l2.1-2.9l2.1-2.9l2.1-2.9l2.1-2.9l2.1-2.9l2.1-2.9l2.1-3l2.1-3l2.1-3l2.1-3l2.1-3.1l2.1-3.1l2.1-3.1
			l2.1-3.1l2.1-3.1l2.1-3.2l2.1-3.2l2.1-3.2l2.1-3.3l2.1-3.3l2.1-3.3l2.1-3.3l2.1-3.4l2.1-3.4l2.1-3.4l2.1-3.5l2.1-3.5l2.1-3.6
			l2.1-3.6l2.1-3.6l2.1-3.7l2.1-3.7l2.1-3.8l2.1-3.8l2.1-3.9l2.1-3.9l2.1-3.9l2.1-4l2.1-4.1l2.1-4.1l2.1-4.2l2.1-4.2l2.1-4.3
			l2.1-4.3l2.1-4.4l2.1-4.5l2.1-4.5l2.1-4.6l2.1-4.7l2.1-4.7l2.1-4.8l2.1-4.9l2.1-5l2.1-5.1l2.1-5.2l2.1-5.2l2.1-5.3l2.1-5.4
			l2.1-5.5l2.1-5.6l2.1-5.8l2.1-5.9l2.1-6l2.1-6.1l2.1-6.2l2.1-6.4l2.1-6.5l2.1-6.6l2.1-6.8l2.1-6.9l2.1-7.1l2.1-7.2l2.1-7.4
			l2.1-7.6l2.1-7.8l2.1-8l2.1-8.2l2.1-8.4l2.1-8.6l2.1-8.8l2.1-9.1l2.1-9.3l1.7-7.9"/>
		<g>
			<g>
				<line class="st5" x1="1961" y1="93.9" x2="1961" y2="99.9"/>
				<line class="st6" x1="1961" y1="111.9" x2="1961" y2="946.1"/>
				<line class="st5" x1="1961" y1="952.1" x2="1961" y2="958.1"/>
			</g>
		</g>
		<path class="st4" d="M2106.2,958.1l1.7-6.6l2.1-8l2.1-7.8l2.1-7.7l2.1-7.5l2.1-7.4l2.1-7.2l2.1-7.1l2.1-7l2.1-6.8l2.1-6.7l2.1-6.6
			l2.1-6.5l2.1-6.4l2.1-6.3l2.1-6.2l2.1-6.1l2.1-6l2.1-5.9l2.1-5.8l2.1-5.7l2.1-5.7l2.1-5.6l2.1-5.5l2.1-5.4l2.1-5.4l2.1-5.3
			l2.1-5.2l2.1-5.2l2.1-5.1l2.1-5.1l2.1-5l2.1-5l2.1-4.9l2.1-4.9l2.1-4.8l2.1-4.8l2.1-4.7l2.1-4.7l2.1-4.6l2.1-4.6l2.1-4.6l2.1-4.5
			l2.1-4.5l2.1-4.5l2.1-4.4l2.1-4.4l2.1-4.4l2.1-4.4l2.1-4.3l2.1-4.3l2.1-4.3l2.1-4.3l2.1-4.2l2.1-4.2l2.1-4.2l2.1-4.2l2.1-4.2
			l2.1-4.2l2.1-4.1l2.1-4.1l2.1-4.1l2.1-4.1l2.1-4.1l2.1-4.1l2.1-4.1l2.1-4.1l2.1-4.1l2.1-4l2.1-4l2.1-4l2.1-4l2.1-4l2.1-4l2.1-4
			l2.1-4l2.1-4l2.1-4l2.1-4l2.1-4l2.1-4l2.1-4l2.1-4l2.1-4l2.1-4.1l2.1-4.1l2.1-4.1l2.1-4.1l2.1-4.1l2.1-4.1l2.1-4.1l2.1-4.1
			l2.1-4.1l2.1-4.2l2.1-4.2l2.1-4.2l2.1-4.2l2.1-4.2l2.1-4.2l2.1-4.3l2.1-4.3l2.1-4.3l2.1-4.3l2.1-4.3l2.1-4.4l2.1-4.4l2.1-4.4
			l2.1-4.4l2.1-4.5l2.1-4.5l2.1-4.5l2.1-4.6l2.1-4.6l2.1-4.6l2.1-4.7l2.1-4.7l2.1-4.7l2.1-4.8l2.1-4.8l2.1-4.9l2.1-4.9l2.1-4.9
			l2.1-5l2.1-5l2.1-5.1l2.1-5.1l2.1-5.2l2.1-5.2l2.1-5.3l2.1-5.4l2.1-5.4l2.1-5.5l2.1-5.5l2.1-5.6l2.1-5.7l2.1-5.7l2.1-5.8l2.1-5.9
			l2.1-6l2.1-6l2.1-6.1l2.1-6.2l2.1-6.3l2.1-6.4"/>
	</g>
</g>
</svg>
