<?xml version="1.0" encoding="UTF-8"?>
<svg id="symmetry" xmlns="http://www.w3.org/2000/svg" viewBox="0 0 542.6224 597.2979">
  <defs>
    <style>
      .cls-1 {
        stroke-width: 0px;
      }
    </style>
  </defs>
  <path class="cls-1" d="m85.3523,421.3515c.2207-1.3365.1178-2.7516.1319-4.1053.014-1.3508.1453-2.7773-.1319-4.1053-.0972-.4656-.8444-.466-.9417,0-.2772,1.3279-.1459,2.7546-.1319,4.1053.0141,1.3538-.0888,2.7687.1319,4.1053.077.4661.8647.4664.9417,0h0Z"/>
  <path class="cls-1" d="m85.1062,397.3551c.1796-1.7526.4709-3.5345.5083-5.2959l.0551-2.596c.0187-.8834.1261-1.822.0295-2.6999-.0249-.2266-.3553-.3085-.422-.0571-.2164.8161-.2466,1.7119-.3535,2.5493l-.3445,2.6999c-.2269,1.7783-.2102,3.6091-.2932,5.3998-.0248.5353.7675.5152.8203,0h0Z"/>
  <path class="cls-1" d="m85.8476,370.1204c-.3936-1.2587-.5849-2.5629-.5558-3.8821.0292-1.321.3205-2.5946.667-3.8637.0956-.3503-.4524-.6099-.6069-.2558-1.1033,2.5286-.9998,5.5911-.1446,8.1782.1333.4032.7687.234.6403-.1765h0Z"/>
  <path class="cls-1" d="m87.8896,341.1485l.113-.4061-.341.341.0363-.0139c.262-.1004.4573-.308.4589-.6027l.0109-2.0407.0055-1.0204c.0019-.3586.0479-.6991-.1523-1.0147l.0773.2859c-.0432-.5102-.0863-1.0204-.1295-1.5306-.0404-.4768-.0259-1.0008-.1544-1.4627-.0775-.2786-.4874-.2789-.565,0-.1284.4614-.1141.9864-.1544,1.4627-.0432.5102-.0863,1.0204-.1295,1.5306l.0773-.2859c-.1996.3146-.1542.658-.1523,1.0147l.0055,1.0204.0109,2.0407c.0016.2975.1972.5024.4589.6027l.0363.0139-.341-.341.113.4061c.0982.3529.6174.3533.7157,0h0Z"/>
  <path class="cls-1" d="m89.7882,312.6205c-.102-1.6291-.2539-3.2772-.1967-4.9104.0277-.7895.1078-1.5778.1844-2.3638.0844-.8657.1267-1.7128.287-2.5698.0712-.3804-.5004-.6995-.6783-.2859-.354.8232-.7301,1.6231-.9388,2.4929-.2009.8372-.3065,1.6852-.3603,2.544-.1118,1.7848-.0001,3.5463.5901,5.2436.1978.5688,1.1548.5242,1.1126-.1506h0Z"/>
  <path class="cls-1" d="m91.4306,255.5775l.1045-5.1681c.0173-.8567.0778-1.7282.0238-2.584-.0251-.3979-.067-.7953-.1004-1.1926-.0353-.4188-.0158-.8481-.226-1.2206-.1646-.2918-.6112-.2918-.7758,0-.211.374-.1905.7994-.226,1.2206-.0335.3973-.0753.7947-.1004,1.1926-.054.856.0065,1.7272.0238,2.584l.1045,5.1681c.0153.7539,1.1566.7552,1.1719,0h0Z"/>
  <path class="cls-1" d="m91.4111,223.1112l.1358-4.3929c.0446-1.4431.1625-2.9601-.1184-4.3816-.1141-.5775-1.0535-.578-1.1677,0-.2809,1.4213-.163,2.9386-.1184,4.3816l.1358,4.3929c.0225.7287,1.1102.7299,1.1328,0h0Z"/>
  <path class="cls-1" d="m93.8284,191.3522c-.0335-.7727-.0124-1.5432-.0977-2.3116-.0893-.8045-.1472-1.6125-.1739-2.4215-.026-.7876-.0161-1.5726-.0613-2.3561-.0441-.7651.1684-1.6369-.0773-2.3704-.1472-.4394-.7501-.549-.9996-.1306-.4154.6967-.3405,1.6447-.4561,2.4287-.1193.8091-.1034,1.6102-.0699,2.4285.0331.8093.0974,1.6172.193,2.4215.1018.856.3517,1.6482.6301,2.4622.1969.5757,1.1417.5206,1.1126-.1506h0Z"/>
  <path class="cls-1" d="m94.5656,160.8245c-.1234-1.3082-.1311-2.6245-.0104-3.9334.1215-1.3185.3763-2.6196.5764-3.9267.0759-.4957-.5708-.6823-.7533-.2077-.9821,2.5529-.9282,5.4965-.5415,8.1665.0594.4101.7682.3178.7289-.0987h0Z"/>
  <path class="cls-1" d="m95.5328,133.0329c-.1247-1.7713-.0784-3.5982.0928-5.3653.0867-.8953.253-1.7738.4152-2.6575.1585-.8638.4787-1.7264.5456-2.6001.0327-.4276-.5612-.5279-.7643-.207-.4871.7695-.7007,1.821-.8982,2.7018-.1954.8714-.2948,1.7755-.3628,2.6653-.1442,1.8868.0367,3.6911.473,5.5303.065.274.5191.2215.4987-.0675h0Z"/>
  <path class="cls-1" d="m99.2643,103.8474l.1606-4.0534c.0529-1.3352.1438-2.7268-.102-4.0429-.0975-.5218-.9571-.5221-1.0547,0-.2458,1.316-.1549,2.7078-.102,4.0429l.1606,4.0534c.0239.6029.9136.604.9375,0h0Z"/>
  <path class="cls-1" d="m99.8927,79.327c-.0735-2.105-.0424-4.2159.0866-6.3183.0633-1.032.0989-2.062.1469-3.0948.0495-1.0664.1974-2.1379.1426-3.2042-.0227-.4425-.6266-.5271-.7673-.1038-.3273.9845-.4195,2.0337-.5444,3.0609-.1305,1.0737-.2259,2.1359-.2228,3.218.0063,2.1562.1551,4.3023.4162,6.4423.0561.4599.7593.4898.7422,0h0Z"/>
  <path class="cls-1" d="m100.4186,50.8367c-.0838-1.6666-.0447-3.3369.1301-4.9967.1743-1.6551.4441-3.3.6072-4.9539.0519-.5265-.7304-.5762-.8824-.1194-.5285,1.5885-.7317,3.4025-.7378,5.0733-.0061,1.6964.1292,3.3876.3841,5.0642.043.2828.513.2161.4987-.0675h0Z"/>
  <path class="cls-1" d="m100.5114,22.3505l.1796-6.4179c.0138-.4936.0315-.9872.0353-1.4811.0045-.5809-.0974-1.147-.1286-1.7279-.0544-1.0125-.0755-2.027-.232-3.0296-.0378-.2424-.4518-.2425-.4897,0-.1564,1.0026-.1776,2.0172-.232,3.0296-.0289.538-.1292,1.0677-.1286,1.6045.0005.535.0203,1.0697.0353,1.6045l.1796,6.4179c.0141.5025.7672.5034.7812,0h0Z"/>
  <path class="cls-1" d="m383.4614,419.7769c-.2435-1.3199-.4787-2.6416-.7444-3.9572-.0252-.1249-.2071-.0698-.1883.0519.2054,1.3289.4414,2.6528.6691,3.978.0296.1724.2956.1002.2637-.0727h0Z"/>
  <path class="cls-1" d="m382.4841,412.5308l-.3657-2.7537c-.0614-.4626-.1579-.9096-.2607-1.3646-.0971-.4297-.1424-.9302-.355-1.3193-.1123-.2054-.4426-.16-.4998.0653-.1056.4164-.0287.8933-.0161,1.3197.0134.453.0243.9007.0785,1.3509l.325,2.7018c.0353.2932.2261.5469.5469.5469.2653,0,.586-.252.5469-.5469h0Z"/>
  <path class="cls-1" d="m381.6911,401.833l-.3059-1.3322c-.0507-.2209-.0908-.4481-.1556-.6653-.065-.2179-.1469-.4323-.22-.6476-.1067-.314-.5422-.1843-.4897.135.0371.2254.067.4534.1113.6775.0439.2221.1166.4413.1757.6598l.3568,1.3181c.0922.3407.606.1971.5273-.1454h0Z"/>
  <path class="cls-1" d="m380.8648,386.6757l-.0195-3.3129c-.0009-.1508-.2335-.1511-.2344,0l-.0195,3.3129c-.001.1759.2745.1762.2734,0h0Z"/>
  <path class="cls-1" d="m381.1233,376.3385c-.5845-.6421-.9502-1.4171-1.1241-2.2697-.0783-.3836-.1106-.7865-.1004-1.2234.0109-.4705.1855-.9318.1283-1.3835-.028-.2212-.1143-.4105-.3362-.4998-.1972-.0793-.4456-.0495-.5974.1131-.4097.4389-.4738,1.0707-.525,1.6496-.0495.5586-.0003,1.1165.1194,1.6638.2341,1.0706.7702,2.0679,1.524,2.8614.2398.2524.6698.2417.9115,0,.2562-.2562.235-.6533,0-.9115h0Z"/>
  <path class="cls-1" d="m379.1701,363.4855c.0608-1.0103.1656-2.0292.1758-3.0412.005-.4983.0551-1.0399-.0216-1.5325-.0769-.4939-.1759-.9856-.2637-1.4777-.0565-.3169-.5838-.3171-.6403,0-.0878.4921-.1877.9837-.2637,1.4777-.0759.4932-.0266,1.0338-.0216,1.5325.0101,1.012.115,2.0309.1758,3.0412.0332.5524.8261.5534.8594,0h0Z"/>
  <path class="cls-1" d="m379.7741,353.5468l.0111-1.0137.0054-.4969c.0009-.0795.0017-.159.0026-.2385.0013-.1163-.0364-.2177-.07-.3268-.0972-.3153-.543-.3157-.6403,0-.0314.1019-.0674.1989-.0702.3069-.0022.0859.0019.1725.0028.2584l.0054.4969.0111,1.0137c.0021.194.1692.3801.3711.3711.2029-.0091.3688-.163.3711-.3711h0Z"/>
  <path class="cls-1" d="m380.6448,344.9258c-.1545-1.1993-.1934-2.4098-.1054-3.6161.0431-.5915.1143-1.1745.1422-1.767.0293-.6229.0937-1.2425.1908-1.8585.059-.3744-.4238-.5073-.565-.1558-.2383.5931-.4489,1.1964-.6243,1.8112-.1794.6287-.2494,1.2499-.2835,1.9018-.067,1.2806.0149,2.558.2094,3.8246.0892.5809,1.1119.4502,1.0359-.1402h0Z"/>
  <path class="cls-1" d="m380.7867,327.7063c.0292-1.9846.1177-3.9792.0586-5.9632-.0045-.1508-.2299-.151-.2344,0-.0591,1.984.0294,3.9786.0586,5.9632.0011.0754.1161.0755.1172,0h0Z"/>
  <path class="cls-1" d="m381.4643,315.1541c.1463-1.0071.2939-2.0141.439-3.0214.1416-.9832.1899-1.9874.2799-2.9767.0119-.1303-.2074-.1614-.2302-.0312-.1715.9784-.3862,1.9601-.5072,2.946-.124,1.0102-.2435,2.021-.3652,3.0314-.0261.2164.352.2697.3836.0519h0Z"/>
  <path class="cls-1" d="m383.1356,300.4285c-.1202-.3171-.2153-.6423-.2813-.975-.0644-.3242-.1682-.6384-.2284-.9643-.0526-.285-.0626-.5698-.0847-.8995-.0229-.3416-.0365-.6773-.013-1.0197.0355-.5177-.7421-.5923-.8824-.1194-.1094.3689-.1967.7549-.2284,1.1392-.03.3646.0098.739.0584,1.1003.0533.3957.1202.7859.2906,1.1494.1539.3282.3388.6395.5481.9352.129.1822.3449.2788.561.1838.1886-.0829.3407-.3175.2601-.5299h0Z"/>
  <path class="cls-1" d="m381.8399,287.2891c.0845-1.4637.1681-2.9275.2535-4.3912.0425-.7298.02-1.4646.02-2.1956s.067-1.502-.1765-2.1773c-.1933-.536-.8988-.5368-1.0923,0-.2441.677-.1765,1.4634-.1765,2.1773,0,.731-.0225,1.4658.02,2.1956.0853,1.4637.169,2.9275.2535,4.3912.0333.5776.865.5786.8984,0h0Z"/>
  <path class="cls-1" d="m381.8594,254.1603v-1.6896c0-.2897.0309-.5987-.0315-.8825-.0595-.2703-.1283-.539-.1924-.8083-.0576-.2419-.4321-.2421-.4897,0-.0641.2692-.135.5377-.1924.8083-.0603.2849-.0315.592-.0315.8825v1.6896c0,.2533.2154.4688.4688.4688.2542,0,.4688-.2145.4688-.4688h0Z"/>
  <path class="cls-1" d="m381.5469,240.2462l-.0195-7.2883c-.0005-.1759-.273-.1762-.2734,0l-.0195,7.2883c-.0005.2011.313.2014.3125,0h0Z"/>
  <path class="cls-1" d="m381.7227,224.3444l.0181-1.6564c.006-.5483-.0863-1.1102-.1353-1.6564-.0248-.276-.4049-.2765-.4297,0-.049.5463-.1413,1.1081-.1353,1.6564l.0181,1.6564c.0047.4273.6594.428.6641,0h0Z"/>
  <path class="cls-1" d="m382.4439,214.4057v-2.41c0-.3942.0158-.7902-.0287-1.1822-.0414-.3655-.0217-.8191-.1765-1.1543-.0649-.1405-.3061-.1405-.371,0-.1496.324-.1313.7557-.1713,1.1088-.0463.4083-.0338.8171-.0338,1.2277v2.41c0,.5027.7812.5035.7812,0h0Z"/>
  <path class="cls-1" d="m381.7423,198.5039l.0328-1.3782.0164-.6891.0076-.318c.0039-.1638-.0546-.2876-.1216-.4326-.1003-.2172-.4731-.2172-.5734,0-.0665.1441-.1255.2687-.1216.4326l.0076.318.0164.6891.0328,1.3782c.0108.4523.6924.4531.7031,0h0Z"/>
  <path class="cls-1" d="m382.4628,189.0693c-.1464-1.0321-.2038-2.096-.2277-3.1377-.012-.5229.0083-1.0441-.0196-1.5633-.0289-.5368.1148-1.1417.2035-1.6685.0455-.27-.3239-.3799-.4143-.1142-.0946.278-.1843.5576-.2664.8396-.0788.2708-.1177.5885-.2244.8482-.1915.4662-.278,1.0002-.359,1.5121-.1843,1.1648-.2113,2.3013-.1117,3.476.0366.4314.3611.7716.8187.7097.4676-.0632.6618-.4718.6008-.9019h0Z"/>
  <path class="cls-1" d="m381.5008,172.648c-.0931-.4317-.1466-.8607-.1848-1.3002-.0399-.4576-.1525-.9046-.1859-1.3651-.0322-.444-.073-.8896-.0956-1.3342-.0222-.4378.062-.9147-.0125-1.3434-.0395-.2275-.3572-.2307-.4641-.0607-.232.3692-.2909.9133-.361,1.338-.0837.5075-.1146.9833-.0614,1.4953.0493.4745.0901,1.0092.2751,1.4523.1878.4498.4081.8822.6617,1.2985.141.2315.484.0773.4284-.1806h0Z"/>
  <path class="cls-1" d="m379.735,154.1112c.031-.6369.0315-1.2834.127-1.9142.0883-.583.1797-1.1656.2648-1.7491.0897-.6145.0597-1.2551.0736-1.8759.0065-.2915.013-.5831.0195-.8746.0079-.3528-.0922-.7111-.1579-1.0563-.1242-.6522-1.1941-.6526-1.3184,0-.0612.3217-.1508.656-.1595.9834-.0083.3142.0141.633.0212.9475.0139.6206-.0161,1.2616.0736,1.8759.0852.5835.1766,1.1661.2648,1.7491.0955.6305.096,1.2776.127,1.9142.0208.427.6432.4278.6641,0h0Z"/>
  <path class="cls-1" d="m380.0655,135.7739c.2765,0,.2769-.4297,0-.4297-.2765,0-.2769.4297,0,.4297h0Z"/>
  <path class="cls-1" d="m382.5576,120.8411c-.6359-2.9988-.702-6.0818-.8826-9.132-.0162-.274-.4284-.359-.4987-.0675-.3781,1.5661-.5328,3.1214-.4188,4.7317.1136,1.6048.3526,3.2.7078,4.7689.1613.7125,1.2431.4097,1.0923-.3011h0Z"/>
  <path class="cls-1" d="m381.9786,104.2576c-.0168-.0701-.0326-.1404-.046-.2113-.0039-.0204-.0359-.2339-.0214-.1175-.0178-.1431-.0274-.2874-.0299-.4316-.0022-.1261.0012-.2524.0102-.3782.0051-.0718.0118-.1437.0209-.2151-.0137.1082.0182-.1018.0217-.1212.0482-.2673.0978-.5312.1825-.7899.0889-.2714.2282-.4869.3038-.7903.0749-.3005-.2842-.6558-.5738-.4411-.1595.1182-.277.2369-.3857.4036-.0834.128-.1597.2605-.2285.3969-.1512.2996-.2932.6257-.3599.9561-.1371.6787-.1331,1.3642.0138,2.0408.063.2899.4168.4862.6967.3956.3002-.0971.4695-.3878.3956-.6967h0Z"/>
  <path class="cls-1" d="m381.5785,92.5394l.6455-3.9804c.0278-.1716-.2337-.2466-.2637-.0727l-.6831,3.97c-.0339.1973.2693.2807.3013.0831h0Z"/>
  <path class="cls-1" d="m383.2799,80.7228l-.2608-.6161c-.0994-.1681-.2332-.3018-.4013-.4013-.1745-.1012-.3626-.1521-.5645-.1527-.2019.0006-.3901.0515-.5645.1527-.1681.0994-.3018.2332-.4013.4013l-.2608.6161c-.1285.2216-.1932.4606-.1939.717.0008.2564.0654.4954.1939.717.2528.4321.7258.7036,1.2266.7036s.9738-.2715,1.2266-.7036c.1285-.2216.1932-.4606.1939-.717-.0008-.2564-.0654-.4954-.1939-.717h0Z"/>
  <path class="cls-1" d="m382.488,64.7819l.5279-1.6987c.1767-.5685.3092-1.1422.4425-1.7223.0568-.2471-.3056-.4294-.4284-.1806-.271.5492-.5363,1.0934-.7652,1.6617l-.6809,1.6907c-.0946.2349.1031.515.3274.5766.2515.0691.5012-.0848.5766-.3274h0Z"/>
  <path class="cls-1" d="m381.3907,54.4723c.5278,0,.5287-.8203,0-.8203-.5278,0-.5287.8203,0,.8203h0Z"/>
  <path class="cls-1" d="m382.4048,46.1112l.014-.6626c.0048-.2258-.0161-.4387-.044-.6626l-.1653-1.3252c-.025-.2004-.2874-.2009-.3125,0l-.1653,1.3252c-.0268.2147-.0491.4195-.0446.6361l.0145.6891c.0095.4523.6936.4531.7031,0h0Z"/>
  <path class="cls-1" d="m382.6001,34.8474v-2.3645c0-.7895-.1157-1.5768-.302-2.341-.059-.2418-.4307-.2421-.4897,0-.1863.7642-.302,1.5515-.302,2.341v2.3645c0,.7038,1.0938.7049,1.0938,0h0Z"/>
  <path class="cls-1" d="m381.8332,23.3241c-.5569-.7237-.952-1.5413-1.1607-2.4308-.0999-.4257-.1524-.8562-.1592-1.2934-.0035-.2262.0006-.4537.0144-.6795.0162-.2636.0617-.4889-.0191-.7462-.12-.3826-.5653-.3883-.7854-.1026-.1819.2361-.1957.5173-.2284.8065-.0272.2403-.0395.4801-.0337.7219.0127.5269.0839,1.0578.2086,1.5698.2477,1.0168.7227,1.9484,1.3658,2.7698.3516.4491,1.1497-.1578.7976-.6154h0Z"/>
  <path class="cls-1" d="m380.1587,12.3409l.6082-2.0035c.0589-.194-.2363-.2716-.3013-.0831l-.6835,1.9828c-.0817.2369.3034.3453.3767.1038h0Z"/>
  <path class="cls-1" d="m381.3102,3.8643l.3619-1.7496c.0649-.314.1109-.628.1532-.9459l.0592-.4454c.0082-.0615.0226-.1286.0228-.1909.0003-.1232-.0577-.2251-.1048-.3343-.1097-.2541-.4718-.2439-.6442-.083-.2476.2311-.2942.5958-.3836.9113-.0771.2719-.1442.5419-.2015.8187l-.3553,1.7178c-.0598.2893.0841.6258.3956.6967.2832.0645.6326-.0853.6967-.3956h0Z"/>
</svg>