<?xml version="1.0" encoding="UTF-8"?>
<svg id="shapes" xmlns="http://www.w3.org/2000/svg" viewBox="0 0 542.6224 597.2979">
  <defs>
    <style>
      .cls-1 {
        stroke-width: 0px;
      }
    </style>
  </defs>
  <path class="cls-1" d="m279.1001,450.959c-3.3998-6.1377-11.3442-6.0094-17.3677-4.7762-7.5536,1.5465-15.0016,4.7122-21.8586,8.1747-14.0248,7.0819-26.6488,17.266-35.6984,30.1804-8.8495,12.6288-13.7032,27.6171-13.5379,43.0667.1596,14.9232,4.9439,29.9643,14.7215,41.3941,5.6803,6.6402,12.9613,11.6892,20.6382,15.7612,8.3089,4.4071,17.1682,7.8334,26.3266,9.994,17.2723,4.0748,35.6354,3.466,52.1356-3.3646,15.4324-6.3886,28.2765-17.8479,35.579-32.9519,7.3774-15.2588,9.2878-32.9399,6.8004-49.6064-1.3162-8.8192-4.2097-17.389-10.1735-24.1779-5.8095-6.6132-13.5916-11.1771-21.2509-15.3189-16.6761-9.0177-34.6217-15.9397-53.12-20.1331-4.5775-1.0377-9.1905-1.7058-13.8146-2.4796-.7377-.1234-1.0549,1.0056-.3115,1.13,4.5149.7555,8.9968,1.8976,13.4442,2.9734,4.4654,1.0801,8.9061,2.2865,13.3027,3.6191,8.7928,2.6651,17.4171,5.8917,25.7917,9.6716,8.0617,3.6386,16.0744,7.677,23.4896,12.5165,7.272,4.7461,13.5457,10.6866,17.0805,18.7486,3.4578,7.8862,4.6728,16.7766,4.936,25.324.2553,8.2906-.6041,16.6191-2.763,24.6346-2.1203,7.8719-5.4868,15.417-10.1869,22.0927-4.7307,6.7192-10.8203,12.3931-17.726,16.8298-14.1364,9.0824-31.0987,12.8161-47.7769,11.6484-9.2076-.6447-18.2927-2.719-26.9587-5.8724-8.4793-3.0855-16.7806-7.1513-24.1309-12.4125-6.4831-4.6404-11.9729-10.44-16.0371-17.3103-3.7023-6.2585-6.1983-13.1837-7.5608-20.3181-2.786-14.5879-.8537-30.1161,5.54-43.5283,6.6329-13.9138,17.4284-25.5144,30.126-34.1282,6.3891-4.3343,13.2658-7.959,20.436-10.8191,6.5328-2.6059,13.8802-5.5406,21.0524-4.7583,3.2524.3548,6.449,1.7456,8.3334,4.5115.2245.3295.7369.0406.5397-.3154h0Z"/>
  <path class="cls-1" d="m.001,26.8235c7.5223,50.656,8.3299,102.1588,9.5747,153.2689,1.2436,51.0616,1.7316,102.1382.5248,153.206-.6774,28.6621-2.1355,57.2622-3.66,85.8876-.0363.6812,1.0055.6717,1.0547,0,1.8814-25.709,2.7632-51.5281,3.4508-77.2934.6812-25.5242.9474-51.0587.8876-76.5917-.1201-51.2542-1.3605-102.5392-3.7433-153.7387C6.7701,83.198,4.7698,54.8225.1517,26.782c-.0164-.0996-.1652-.0565-.1507.0415H.001Z"/>
  <path class="cls-1" d="m185.2425,34.1808c-1.3783,12.958-2.0957,26.0089-3.0159,39.007-.9208,13.0057-1.795,26.0146-2.6225,39.0265-1.655,26.0232-3.1069,52.0583-4.365,78.1037-2.5162,52.089-4.2853,104.2141-5.3066,156.3538-.5731,29.2571-1.064,58.5329-.9541,87.7963.0028.7543,1.1637.755,1.1719,0,.5668-52.154,1.1698-104.285,2.8476-156.4189,1.6774-52.123,4.1272-104.2186,7.2518-156.2746.8768-14.6067,1.8123-29.2099,2.8066-43.8091.9936-14.5892,2.349-29.1796,3.0457-43.7847.0268-.5613-.8021-.5387-.8594,0h0Z"/>
  <path class="cls-1" d="m304.2547,77.9157c.2029,8.1822-.1579,16.3482-.5992,24.5163-.0166.3065.4354.2928.4688,0,.9267-8.1333.9804-16.3455.6383-24.5163-.0136-.3251-.516-.3281-.5078,0h0Z"/>
  <path class="cls-1" d="m403.7591,42.5477c-5.7475-2.7305-12.2582-3.1367-18.5348-2.8941-6.5294.2525-13.0652,1.0343-19.5088,2.1003-13.0054,2.1516-25.7696,5.7778-37.9657,10.7802-5.7764,2.3693-11.6455,4.9114-17.0023,8.1385-4.1587,2.5054-8.4477,6.0783-9.0764,11.2066-.6649,5.4232,3.0427,10.1753,7.0032,13.4153,4.4149,3.6117,9.6431,6.2031,15.0037,8.0847,11.8025,4.1428,24.7325,5.2531,37.1524,5.7563,13.0683.5295,26.1923-.143,39.1366-2.0173,13.045-1.8888,25.9176-4.973,38.3965-9.2187,6.1821-2.1034,12.2672-4.4927,18.229-7.1573,4.2438-1.8968,9.2485-4.4957,11.0825-9.0755,2.1414-5.3473-2.0659-9.7553-5.7462-13.0663-4.3123-3.8796-9.1073-7.2263-14.2191-9.9656-10.1253-5.4258-21.6842-8.3506-33.1597-8.5586-2.8772-.0522-5.752.0778-8.6143.371-.2957.0303-.3029.4939,0,.4688,11.1844-.9289,22.4983.8179,32.9257,4.9552,5.1638,2.0489,10.1373,4.6657,14.7351,7.7845,2.39,1.6212,4.6796,3.3888,6.8488,5.2955,2.0096,1.7664,4.1592,3.6312,5.5008,5.9799,3.0615,5.3596-1.2756,9.9537-5.7008,12.5868-2.279,1.356-4.7408,2.3844-7.1722,3.4298-2.9957,1.288-6.0231,2.5028-9.0763,3.6475-11.637,4.3629-23.6557,7.7011-35.8722,9.9823-12.3133,2.2993-24.8288,3.5408-37.3546,3.6781-12.1763.1334-24.5998-.5346-36.5609-2.9275-5.7516-1.1506-11.4464-2.8095-16.7264-5.3964-5.0156-2.4574-10.2185-5.7513-13.2112-10.6063-1.526-2.4756-2.3285-5.4008-1.6683-8.2872.5635-2.4639,2.0703-4.5483,3.8921-6.2502,4.1606-3.8867,9.7958-6.2478,14.9084-8.5837,11.4068-5.2119,23.3812-9.1702,35.6392-11.8156,6.2517-1.3492,12.5776-2.3552,18.9403-3.0037,6.1539-.6272,12.4745-1.157,18.6424-.4381,3.0249.3526,6.0598,1.0608,8.923,2.1004.2887.1048.4909-.3667.2107-.4998h0Z"/>
  <path class="cls-1" d="m304.1386,105.7571c-1.1168,17.4219-2.2259,34.8449-3.1435,52.2787-.9184,17.4501-1.5807,34.9149-1.88,52.387-.2985,17.4233-.2206,34.8561.4269,52.271.645,17.348,1.8437,34.6833,3.8374,51.9304,1.9787,17.1177,4.6993,34.1543,8.3328,51.0005.4671,2.1655,1.1164,4.2895,1.7293,6.4176.0778.2702.4607.154.4143-.1142-1.4803-8.5711-3.3739-17.0625-4.8692-25.6338-1.4972-8.5822-2.7775-17.202-3.8591-25.8464-2.155-17.2243-3.5618-34.54-4.3765-51.878-.8137-17.3153-1.0423-34.6547-.8761-51.9872.1667-17.3851.7641-34.7587,1.491-52.1283.7299-17.442,1.6741-34.8742,2.6486-52.304.1192-2.1311.2388-4.2622.3585-6.3933.0085-.1509-.2248-.1498-.2344,0h0Z"/>
  <path class="cls-1" d="m464.6031,73.0961c-5.4037,35.2004-6.7903,70.9356-7.8156,106.487-1.0444,36.2147-1.7233,72.4415-2.1117,108.6691-.2191,20.4404-.4049,40.8822-.2148,61.3233.0056.6032.9312.6042.9375,0,.3796-36.2781.4693-72.5551,1.1065-108.8311.6289-35.8104,1.203-71.6704,3.219-107.4346,1.1336-20.1108,2.8356-40.1642,5.2628-60.1617.0263-.2165-.3503-.2695-.3836-.0519h0Z"/>
  <path class="cls-1" d="m398.6623,341.6044c-13.2905-.7737-26.6824.4063-39.7516,2.8796-13.0952,2.4782-25.8836,6.4224-38.1012,11.7468-4.8026,2.093-10.3431,4.3061-13.4373,8.7898-2.9373,4.2562-1.5972,9.233,1.9858,12.5999,4.2139,3.9598,10.1555,6.2034,15.4991,8.1593,6.2337,2.2817,12.6905,3.9035,19.2011,5.1688,12.4301,2.4158,25.1441,3.9772,37.7729,4.8725,12.248.8683,24.6242.8433,36.7805-1.0461,11.8699-1.8449,23.5862-5.5634,33.8737-11.8584,4.621-2.8276,9.2304-6.6362,10.4702-12.1776,1.229-5.4932-.8477-11.2454-4.3417-15.487-3.8274-4.6462-9.223-7.7071-14.584-10.2546-5.7173-2.7168-11.6876-4.8655-17.8246-6.4158-12.1955-3.0808-24.9157-3.8319-37.3852-2.167-3.1756.424-6.3253,1.0053-9.4452,1.7332-.4909.1145-.2823.8589.2077.7533,12.0191-2.589,24.4853-2.8737,36.6291-.9715,6.0457.947,11.9994,2.4497,17.7713,4.4819,5.5982,1.9711,11.1723,4.3421,16.2136,7.5006,5.042,3.159,9.5724,7.5241,11.188,13.4212.7677,2.8024.8322,5.8053-.1433,8.5665-.9156,2.5915-2.6986,4.7603-4.7412,6.5555-4.2852,3.7663-9.7424,6.4343-14.9481,8.6716-5.3193,2.2861-10.878,4.0063-16.5266,5.2632-23.1229,5.145-47.4316,2.809-70.6152-.7029-12.447-1.8855-24.9796-4.5006-36.4148-9.9374-4.44-2.111-10.5248-5.2253-11.1337-10.7488-.5989-5.4324,4.7069-9.0362,8.9255-11.1879,5.5705-2.8412,11.5025-5.1134,17.3978-7.1794,5.9712-2.0926,12.0524-3.8833,18.2067-5.3526,12.4126-2.9635,25.1344-4.6077,37.8935-4.8776,3.1258-.0661,6.2503-.1529,9.3772-.135.4302.0025.424-.6394,0-.6641h0Z"/>
</svg>